<svg width="569" height="354" viewBox="0 0 569 354" fill="none" xmlns="http://www.w3.org/2000/svg">
<ellipse cx="10.868" cy="10.5403" rx="10.868" ry="10.5403" transform="matrix(0.997827 -0.0658858 0.0700656 0.997542 530.119 29.0166)" fill="#D9D9D9"/>
<ellipse cx="10.868" cy="10.5403" rx="10.868" ry="10.5403" transform="matrix(0.997827 -0.0658858 0.0700656 0.997542 18.0186 37.5625)" fill="#D9D9D9"/>
<ellipse cx="13.8114" cy="13.395" rx="13.8114" ry="13.395" transform="matrix(0.997827 -0.0658858 0.0700656 0.997542 512.1 62.1177)" fill="#EECBDF"/>
<ellipse cx="13.8114" cy="13.395" rx="13.8114" ry="13.395" transform="matrix(0.997827 -0.0658858 0.0700656 0.997542 0 70.6641)" fill="#EECBDF"/>
<ellipse cx="180.184" cy="202.286" rx="10.4317" ry="10.1143" fill="#CE93E9"/>
<ellipse cx="261.739" cy="22.9868" rx="9.48333" ry="9.19481" fill="#AFCEEB"/>
<ellipse cx="197.253" cy="9.19481" rx="9.48333" ry="9.19481" fill="#D9D9D9"/>
<ellipse cx="138.931" cy="66.6622" rx="7.1125" ry="6.8961" fill="#AFCEEB"/>
<ellipse cx="104.791" cy="51.0313" rx="5.21583" ry="5.05714" fill="#AFCEEB"/>
<ellipse cx="97.204" cy="34.4804" rx="4.2675" ry="4.13766" fill="#AFCEEB"/>
<ellipse cx="182.08" cy="138.842" rx="5.69" ry="5.51688" fill="#AFCEEB"/>
<ellipse cx="201.046" cy="163.668" rx="5.69" ry="5.51688" fill="#EDE388"/>
<ellipse cx="222.858" cy="83.6726" rx="5.69" ry="5.51688" fill="#AFCEEB"/>
<ellipse cx="241.351" cy="45.5141" rx="4.2675" ry="4.13766" fill="#AFCEEB"/>
<ellipse cx="203.418" cy="39.9974" rx="2.37083" ry="2.2987" fill="#AFCEEB"/>
<ellipse cx="229.023" cy="104.361" rx="2.37083" ry="2.2987" fill="#AFCEEB"/>
<ellipse cx="192.986" cy="160.45" rx="2.37083" ry="2.2987" fill="#EDE388"/>
<ellipse cx="150.31" cy="222.055" rx="2.37083" ry="2.2987" fill="#EDE388"/>
<ellipse cx="467.054" cy="106.2" rx="2.37083" ry="2.2987" fill="#EDE388"/>
<ellipse cx="467.528" cy="84.5924" rx="1.89667" ry="1.83896" fill="#D9D9D9"/>
<ellipse cx="512.1" cy="131.485" rx="1.89667" ry="1.83896" fill="#EDE388"/>
<ellipse cx="485.547" cy="212.4" rx="1.89667" ry="1.83896" fill="#EDE388"/>
<ellipse cx="416.319" cy="86.4309" rx="5.69" ry="5.51688" fill="#D0E9DE"/>
<ellipse cx="378.859" cy="85.9716" rx="3.31917" ry="3.21818" fill="#D9D9D9"/>
<ellipse cx="361.79" cy="275.384" rx="3.31917" ry="3.21818" fill="#D9D9D9"/>
<ellipse cx="375.066" cy="279.982" rx="2.37083" ry="2.2987" fill="#D9D9D9"/>
<ellipse cx="490.289" cy="155.392" rx="4.74167" ry="4.5974" fill="#EDE388"/>
<ellipse cx="527.273" cy="139.761" rx="4.74167" ry="4.5974" fill="#E592C2"/>
<ellipse cx="547.663" cy="166.886" rx="3.31917" ry="3.21818" fill="#CE93E9"/>
<ellipse cx="548.611" cy="222.055" rx="4.2675" ry="4.13766" fill="#CE93E9"/>
<ellipse cx="480.33" cy="333.312" rx="8.06083" ry="7.81558" fill="#EDE388"/>
<ellipse cx="539.127" cy="281.821" rx="6.16417" ry="5.97662" fill="#EDE388"/>
<ellipse cx="523.954" cy="220.216" rx="3.31917" ry="3.21818" fill="#EDE388"/>
<ellipse cx="513.522" cy="268.029" rx="3.31917" ry="3.21818" fill="#EDE388"/>
<ellipse cx="530.593" cy="350.782" rx="3.31917" ry="3.21818" fill="#D9D9D9"/>
<ellipse cx="497.401" cy="174.242" rx="3.31917" ry="3.21818" fill="#EDE388"/>
<ellipse cx="566.156" cy="206.883" rx="2.845" ry="2.75844" fill="#CE93E9"/>
<ellipse cx="561.887" cy="156.771" rx="2.37083" ry="2.2987" fill="#CE93E9"/>
<ellipse cx="513.997" cy="188.493" rx="4.74167" ry="4.5974" fill="#EECBDF"/>
<ellipse cx="498.823" cy="91.948" rx="5.69" ry="5.51688" fill="#D0E9DE"/>
<ellipse cx="144.147" cy="160.909" rx="5.69" ry="5.51688" fill="#CE93E9"/>
<ellipse cx="129.921" cy="205.044" rx="4.74167" ry="4.5974" fill="#EDE388"/>
<ellipse cx="182.08" cy="171.943" rx="5.69" ry="5.51688" fill="#EDE388"/>
<ellipse cx="231.393" cy="190.332" rx="5.69" ry="5.51688" fill="#EDE388"/>
<ellipse cx="85.8241" cy="74.018" rx="13.7508" ry="13.3325" fill="#EECBDF"/>
</svg>
