<svg width="457" height="518" viewBox="0 0 457 518" fill="none" xmlns="http://www.w3.org/2000/svg">
<path d="M82.4751 177.587C49.0554 297.171 50.1973 371.208 93.6689 490.404C224.316 515.474 272.006 511.785 326.367 483.924C352.288 293.642 250.372 314.26 213.258 188.78L82.4751 177.587Z" fill="#FCFFE4"/>
<path d="M246.248 128.154C246.248 172.699 205.662 208.809 155.595 208.809C105.529 208.809 61.2676 170.236 61.2676 125.692C61.2676 81.1471 101.854 45.0366 151.92 45.0366C201.986 45.0366 246.248 83.6098 246.248 128.154Z" fill="#FFFCE4"/>
<path d="M223.862 225.823C223.862 265.881 190.772 298.354 149.954 298.354C109.136 298.354 73.0498 263.666 73.0498 223.608C73.0498 183.55 106.14 151.077 146.958 151.077C187.776 151.077 223.862 185.765 223.862 225.823Z" fill="#FFFCE4"/>
<path d="M209.723 227.931C209.723 259.016 184.13 284.216 152.56 284.216C120.989 284.216 93.0791 257.298 93.0791 226.213C93.0791 195.128 118.672 169.928 150.242 169.928C181.813 169.928 209.723 196.846 209.723 227.931Z" fill="url(#paint0_linear_68_484)"/>
<path d="M249.783 128.101C249.783 170.723 210.748 205.275 162.595 205.275C114.442 205.275 71.8721 168.366 71.8721 125.745C71.8721 83.123 110.908 48.5713 159.06 48.5713C207.213 48.5713 249.783 85.4794 249.783 128.101Z" fill="url(#paint1_linear_68_484)"/>
<path d="M169.074 89.8091C178.39 97.8117 181.552 104.131 180.856 121.032" stroke="#686565"/>
<path d="M184.98 105.715C188.889 103.302 191.084 103.713 194.995 105.715" stroke="#686565"/>
<path d="M197.352 111.017C199.03 116.142 198.064 118.231 197.352 122.799" stroke="#686565"/>
<path d="M1.76758 179.354C40.2485 145.586 65.7799 130.733 137.263 131.047" stroke="#686565"/>
<path d="M344.407 164.693C307.128 141.489 283.416 132.458 222.7 142.483" stroke="#686565"/>
<path d="M16.7646 233.978C41.1366 188.955 59.9275 166.166 127.078 141.655" stroke="#686565"/>
<path d="M338.836 213.645C311.951 178.676 292.852 161.858 232.381 150.185" stroke="#686565"/>
<path d="M326.515 235.117C302.822 197.912 285.282 179.473 226.078 162.506" stroke="#686565"/>
<path d="M161.804 94.3871C159.03 96.0891 149.275 88.9913 147.573 86.2171C145.871 83.4428 146.741 79.8141 149.515 78.112C152.289 76.41 155.918 77.2793 157.62 80.0535C159.322 82.8278 164.578 92.6851 161.804 94.3871Z" fill="#EDD1AF"/>
<path d="M200.266 97.858C198.814 95.3446 205.373 86.8186 207.887 85.3675C210.4 83.9164 213.614 84.7775 215.065 87.2909C216.516 89.8043 215.655 93.0181 213.142 94.4692C210.628 95.9203 201.717 100.371 200.266 97.858Z" fill="#EDD1AF"/>
<path d="M158.474 116.908C158.474 116.908 150.224 121.168 138.471 118.018C129.671 115.66 126.154 109.055 127.838 102.77C129.522 96.4844 141.424 92.7535 150.224 95.1113C159.023 97.4691 160.158 110.623 158.474 116.908Z" fill="white"/>
<path d="M205.331 122.308C205.331 122.308 213.012 125.958 223.677 122.72C231.661 120.296 230.931 107.483 230.931 107.483C229.2 101.779 220.211 99.6805 212.226 102.105C204.241 104.529 203.6 116.605 205.331 122.308Z" fill="white"/>
<path d="M205.599 122.213C199.708 101.004 217.97 93.9325 235.055 108.072" stroke="#686565"/>
<circle cx="146.099" cy="105.126" r="11.7822" fill="#686565"/>
<circle cx="215.615" cy="111.017" r="10.604" fill="#686565"/>
<path fill-rule="evenodd" clip-rule="evenodd" d="M184.592 126.514C184.153 126.396 183.691 126.333 183.214 126.333C180.286 126.333 177.912 128.707 177.912 131.635C177.912 133.127 178.528 134.474 179.519 135.438C180.215 134.901 181.088 134.581 182.035 134.581C184.313 134.581 186.159 136.428 186.159 138.705C186.159 139 186.128 139.288 186.069 139.566C187.038 140.833 188.565 141.65 190.283 141.65C192.001 141.65 193.528 140.834 194.497 139.567C194.437 139.289 194.406 139.001 194.406 138.705C194.406 136.428 196.253 134.581 198.53 134.581C199.16 134.581 199.758 134.723 200.292 134.976C201.033 134.064 201.476 132.902 201.476 131.635C201.476 128.707 199.103 126.333 196.174 126.333C195.698 126.333 195.235 126.396 194.796 126.515C193.509 127.855 191.699 128.69 189.694 128.69C188.911 128.69 188.159 128.563 187.455 128.328C187.433 128.342 187.412 128.356 187.391 128.369C187.368 128.34 187.345 128.311 187.321 128.282C186.276 127.91 185.344 127.299 184.592 126.514Z" fill="#FDCBCA"/>
<path d="M158.345 116.909C163.284 90.3414 141.085 88.2646 121.946 103.359" stroke="#686565"/>
<path d="M189.097 141.685C190.385 158.823 201.476 161.68 213.258 153.433" stroke="#686565"/>
<path d="M172.021 174.052C175.804 180.009 185.569 182.299 192.64 174.641" stroke="#686565"/>
<path d="M76.584 17.1731C81.8585 2.24523 119.104 37.8821 132.807 51.6881C135.455 54.3559 134.925 58.7461 131.761 60.7755L79.465 94.3198C75.4635 96.8864 70.2054 93.9974 70.2231 89.2435C70.3444 56.7496 70.7414 33.7094 76.584 17.1731Z" fill="#FFFCE4"/>
<path d="M189.104 141.652C179.09 162.269 162.469 160.153 144.332 145.187" stroke="#686565"/>
<path d="M99.5595 55.0515C99.5595 73.9222 103.095 70.3684 88.3675 82.7397C71.2833 109.839 78.3515 79.8133 78.3515 60.9426C78.3515 42.0719 76.4351 24.2642 84.2437 24.2642C90.1337 26.7742 97.2031 36.7891 99.5595 55.0515Z" fill="#EDD1AF"/>
<path d="M34.8381 256.317C55.1399 209.318 71.8455 184.959 136.569 154.616" stroke="#686565"/>
<path d="M247.16 36.0353C245.194 23.8393 212.533 45.0152 198.919 54.4347C195.828 56.5735 195.578 60.977 198.328 63.5395L232.213 95.1157C235.691 98.3566 241.382 96.4584 242.212 91.7775C246.568 67.1956 249.339 49.5563 247.16 36.0353Z" fill="#FFFCE4"/>
<path d="M225.04 57.408C222.31 76.0803 219.913 68.9601 232.697 83.3312C242.123 95.1124 241.31 84.2737 244.04 65.6014C244.04 47.9832 244.039 36.2 240.945 35.0235C234.754 36.6553 230.012 39.6783 225.04 57.408Z" fill="#EDD1AF"/>
<path d="M211.067 394.542C186.325 439.31 174.544 471.71 174.544 471.71C211.067 505.878 206.778 522.806 134.906 503.365C129.011 494.22 138.163 475.865 145.51 458.593C162.844 342.775 197.828 278.606 211.067 281.859C224.307 285.112 223.855 342.497 211.067 394.542Z" fill="url(#paint2_linear_68_484)"/>
<path d="M86.0097 381.419C94.8463 432.671 104.982 466.693 104.982 466.693C40.6482 482.746 56.127 514.564 131.96 504.543C145.083 487.465 139.321 479.41 136.308 460.883C157.292 335.468 106.713 296.587 93.0792 296.587C79.4458 296.587 77.173 330.166 86.0097 381.419Z" fill="url(#paint3_linear_68_484)"/>
<path d="M428.795 244.044C309.258 224.361 395.988 394.129 316.59 457.285C314.004 459.342 311.887 462.035 310.797 465.154C306.143 478.469 319.875 490.195 331.584 482.331C439.463 409.881 375.227 323.874 395.932 295.899C411.757 272.728 475.026 288.35 450.373 256.422C445.157 249.666 437.217 245.43 428.795 244.044Z" fill="url(#paint4_linear_68_484)"/>
<path d="M339.916 440.33C339.916 477.42 308.407 506.899 270.991 506.899C233.575 506.899 194.406 516.891 194.406 479.8C194.406 442.709 232.396 367.869 269.812 367.869C307.228 367.869 339.916 403.239 339.916 440.33Z" fill="url(#paint5_linear_68_484)"/>
<defs>
<linearGradient id="paint0_linear_68_484" x1="151.401" y1="169.928" x2="151.401" y2="284.216" gradientUnits="userSpaceOnUse">
<stop offset="0.205" stop-color="#FDEDCF"/>
<stop offset="1" stop-color="#FFFCE4"/>
</linearGradient>
<linearGradient id="paint1_linear_68_484" x1="189.694" y1="88.0417" x2="160.828" y2="205.275" gradientUnits="userSpaceOnUse">
<stop stop-color="#FCFFE4"/>
<stop offset="1" stop-color="#FFFCE4"/>
</linearGradient>
<linearGradient id="paint2_linear_68_484" x1="217.806" y1="283.515" x2="162.114" y2="510.172" gradientUnits="userSpaceOnUse">
<stop stop-color="#FCFFE4"/>
<stop offset="0.51" stop-color="#FFE4C4"/>
</linearGradient>
<linearGradient id="paint3_linear_68_484" x1="103.025" y1="296.587" x2="103.025" y2="506.457" gradientUnits="userSpaceOnUse">
<stop stop-color="#FCFFE4"/>
<stop offset="0.47" stop-color="#FFE4C4"/>
</linearGradient>
<linearGradient id="paint4_linear_68_484" x1="377.9" y1="242.266" x2="293.561" y2="498.526" gradientUnits="userSpaceOnUse">
<stop offset="0.36" stop-color="#FFFCE4"/>
<stop offset="1" stop-color="#FEE4C4"/>
</linearGradient>
<linearGradient id="paint5_linear_68_484" x1="234.466" y1="329.577" x2="267.161" y2="508.124" gradientUnits="userSpaceOnUse">
<stop offset="0.255" stop-color="#FCFDE1"/>
<stop offset="0.685" stop-color="#FEE4C4"/>
</linearGradient>
</defs>
</svg>
