<svg width="398" height="408" viewBox="0 0 398 408" fill="none" xmlns="http://www.w3.org/2000/svg">
<ellipse cx="28.2599" cy="272.257" rx="28.2012" ry="28.8041" transform="rotate(0.0250169 28.2599 272.257)" fill="#EECBDF"/>
<ellipse cx="356.655" cy="301.205" rx="30.0206" ry="30.6624" transform="rotate(0.0250169 356.655 301.205)" fill="#EECBDF"/>
<ellipse cx="156.128" cy="151.057" rx="28.6561" ry="29.2687" transform="rotate(0.0250169 156.128 151.057)" fill="#EDE388"/>
<ellipse cx="20.6476" cy="21.0849" rx="20.6476" ry="21.0849" transform="matrix(0.99762 -0.0689539 0.0660925 0.997813 117.396 308.612)" fill="#D9D9D9"/>
<ellipse cx="23.9316" cy="24.4384" rx="23.9316" ry="24.4384" transform="matrix(0.99762 -0.0689539 0.0660925 0.997813 98.2881 318.824)" fill="#EECBDF"/>
<ellipse cx="15.4647" cy="15.7922" rx="15.4647" ry="15.7922" transform="matrix(0.99762 -0.0689539 0.0660925 0.997813 171.04 375.745)" fill="#D9D9D9"/>
<ellipse cx="18.4775" cy="18.8688" rx="18.4775" ry="18.8688" transform="matrix(0.99762 -0.0689539 0.0660925 0.997813 329.438 130.933)" fill="#D0E9DE"/>
<ellipse cx="21.5003" cy="21.9556" rx="21.5003" ry="21.9556" transform="matrix(0.99762 -0.0689539 0.0660925 0.997813 296.698 107.689)" fill="#EECBDF"/>
<ellipse cx="13.2349" cy="13.5152" rx="13.2349" ry="13.5152" transform="matrix(0.99762 -0.0689539 0.0660925 0.997813 277.618 53.9912)" fill="#D0E9DE"/>
<ellipse cx="24.3105" cy="24.8253" rx="24.3105" ry="24.8253" transform="matrix(0.99762 -0.0689539 0.0660925 0.997813 292.195 3.50146)" fill="#E592C2"/>
<ellipse cx="382.18" cy="180.425" rx="15.4652" ry="15.7958" transform="rotate(0.0250169 382.18 180.425)" fill="#EECBDF"/>
<ellipse cx="177.497" cy="171.044" rx="21.8332" ry="22.2999" transform="rotate(0.0250169 177.497 171.044)" fill="#AFCEEB"/>
<ellipse cx="163.919" cy="16.7964" rx="13.6457" ry="13.9375" transform="rotate(0.0250169 163.919 16.7964)" fill="#AFCEEB"/>
<ellipse cx="142.072" cy="49.3077" rx="13.6457" ry="13.9375" transform="rotate(0.0250169 142.072 49.3077)" fill="#EECBDF"/>
<ellipse cx="161.541" cy="254.197" rx="15.92" ry="16.2604" transform="rotate(0.0250169 161.541 254.197)" fill="#EDE388"/>
<ellipse cx="184.839" cy="26.0974" rx="9.09716" ry="9.29164" transform="rotate(0.0250169 184.839 26.0974)" fill="#AFCEEB"/>
<ellipse cx="122.984" cy="12.133" rx="9.09716" ry="9.29164" transform="rotate(0.0250169 122.984 12.133)" fill="#D9D9D9"/>
<ellipse cx="174.349" cy="89.7406" rx="18.6492" ry="19.0479" transform="rotate(0.0250169 174.349 89.7406)" fill="#AFCEEB"/>
<ellipse cx="308.502" cy="159.022" rx="15.4652" ry="15.7958" transform="rotate(0.0250169 308.502 159.022)" fill="#D0E9DE"/>
<ellipse cx="316.202" cy="235.681" rx="19.5589" ry="19.977" transform="rotate(0.0250169 316.202 235.681)" fill="#EECBDF"/>
<ellipse cx="356.764" cy="52.1887" rx="22.7429" ry="23.2291" transform="rotate(0.0250169 356.764 52.1887)" fill="#EADFAC"/>
<ellipse cx="16.0639" cy="77.5919" rx="13.1909" ry="13.4729" transform="rotate(0.0250169 16.0639 77.5919)" fill="#EECBDF"/>
</svg>
