<svg width="725" height="1633" viewBox="0 0 725 1633" fill="none" xmlns="http://www.w3.org/2000/svg">
<g filter="url(#filter0_f_75_755)">
<path d="M270.73 31.3379H447.933L616.933 1601.84H78.7588L270.73 31.3379Z" fill="url(#paint0_linear_75_755)" fill-opacity="0.58"/>
</g>
<path d="M270.39 31.8306H445.697V1632.72H270.39V31.8306Z" fill="url(#paint1_linear_75_755)"/>
<path fill-rule="evenodd" clip-rule="evenodd" d="M535.514 1288.17C610.818 1260.87 658.556 1220.61 656.846 1177.58C653.944 1104.59 509.798 1051.3 334.887 1058.55C159.977 1065.81 20.5361 1130.87 23.4381 1203.86C24.8279 1238.82 58.6129 1269.26 112.658 1290.69C163.661 1313.84 248.463 1326.91 343.836 1322.96C344.194 1322.94 344.553 1322.93 344.911 1322.91C345.073 1322.9 345.235 1322.9 345.397 1322.89C363.929 1322.12 382.063 1320.7 399.672 1318.7C452.058 1312.82 498.84 1302.05 535.514 1288.17ZM535.514 1288.17C587.2 1268.6 618.809 1242.83 617.734 1215.79C615.634 1162.96 489.601 1125.3 336.231 1131.66C182.861 1138.02 60.2322 1186 62.3323 1238.83C63.1265 1258.8 81.6428 1276.61 112.658 1290.69C171.358 1313.97 253.958 1326.63 344.911 1322.91C363.687 1322.11 381.998 1320.68 399.672 1318.7C450.303 1312.92 496.591 1302.28 535.514 1288.17Z" fill="url(#paint2_linear_75_755)"/>
<path fill-rule="evenodd" clip-rule="evenodd" d="M521.121 609.724C574.054 573.589 603.275 531.292 593.826 495.27C577.803 434.18 456.629 414.27 323.178 450.799C189.727 487.327 94.5327 566.463 110.556 627.553C118.234 656.824 150.052 676.641 195.795 685.326C239.433 695.964 307.131 692.265 379.768 672.416C380.246 672.286 380.725 672.156 381.205 672.025C395.714 668.053 409.772 663.578 423.284 658.677C462.08 644.692 495.709 627.64 521.121 609.724ZM521.121 609.724C557.31 584.212 576.837 556.949 570.897 534.303C559.301 490.093 455.04 480.22 338.023 512.25C221.007 544.28 135.547 606.085 147.143 650.295C151.531 667.027 169.193 678.84 195.795 685.326C245.176 694.701 310.785 691.102 379.768 672.416C379.85 672.393 379.933 672.371 380.016 672.348C395.002 668.246 409.47 663.656 423.284 658.677C460.765 645.081 494.045 628.208 521.121 609.724Z" fill="url(#paint3_linear_75_755)"/>
<path fill-rule="evenodd" clip-rule="evenodd" d="M470.179 161.488C515.091 143.425 543.314 117.24 541.808 89.6587C539.256 42.9031 452.24 9.8391 347.453 15.8082C242.666 21.7773 159.788 64.5191 162.34 111.275C163.563 133.68 184.182 152.942 216.859 166.271C247.592 180.654 298.301 188.374 355.155 185.21C355.668 185.183 356.182 185.155 356.695 185.125C368.25 184.467 379.538 183.362 390.475 181.853C421.241 177.673 448.662 170.514 470.179 161.488ZM470.179 161.488C501.019 148.55 519.733 131.776 518.786 114.433C516.939 80.5967 440.956 57.41 349.074 62.644C257.191 67.878 184.203 99.5507 186.05 133.387C186.749 146.196 198.072 157.478 216.859 166.271C252.037 180.62 301.188 188.092 355.155 185.21C355.358 185.199 355.56 185.188 355.762 185.176C367.692 184.496 379.304 183.371 390.475 181.853C420.213 177.751 447.352 170.669 470.179 161.488Z" fill="url(#paint4_linear_75_755)"/>
<path fill-rule="evenodd" clip-rule="evenodd" d="M582.344 1580.04C667.357 1551.54 721.338 1509.74 719.571 1465.28C716.572 1389.85 554.276 1335.35 357.071 1343.53C159.866 1351.71 2.43076 1419.48 5.42926 1494.91C6.86515 1531.02 44.8309 1562.34 105.667 1584.28C163.074 1608.01 258.63 1621.19 366.168 1616.73C366.575 1616.71 366.981 1616.69 367.387 1616.68C367.568 1616.67 367.749 1616.66 367.929 1616.65C388.846 1615.79 409.315 1614.25 429.192 1612.1C488.228 1605.82 540.97 1594.52 582.344 1580.04ZM582.344 1580.04C640.703 1559.62 676.447 1532.85 675.335 1504.91C673.166 1450.33 531.228 1411.9 358.31 1419.07C185.391 1426.24 46.9724 1476.31 49.1423 1530.89C49.9628 1551.53 70.7644 1569.85 105.667 1584.28C171.755 1608.11 264.832 1620.87 367.387 1616.68C388.577 1615.77 409.244 1614.22 429.192 1612.1C486.251 1605.94 538.436 1594.76 582.344 1580.04Z" fill="url(#paint5_linear_75_755)"/>
<path fill-rule="evenodd" clip-rule="evenodd" d="M548.86 1008.82C627.318 989.219 679.301 953.827 681.807 910.604C686.063 837.218 546.085 769.047 369.158 758.34C192.231 747.633 45.3528 798.444 41.0971 871.83C39.0586 906.981 70.1128 940.936 122.469 967.953C171.578 996.369 255.715 1018.16 352.173 1024C352.684 1024.03 353.196 1024.06 353.706 1024.09C353.72 1024.09 353.733 1024.09 353.747 1024.09C372.252 1025.21 390.428 1025.66 408.147 1025.48C461.853 1025.02 510.355 1019.03 548.86 1008.82ZM548.86 1008.82C602.764 994.537 637.077 971.998 638.652 944.839C641.732 891.73 518.464 841.067 363.326 831.678C208.188 822.289 79.9266 857.731 76.8468 910.839C75.6819 930.927 92.5935 950.666 122.469 967.953C179.409 997.334 261.543 1018.51 353.706 1024.09C372.302 1025.18 390.505 1025.63 408.147 1025.48C460.058 1024.95 508.042 1019.02 548.86 1008.82Z" fill="url(#paint6_linear_75_755)"/>
<path fill-rule="evenodd" clip-rule="evenodd" d="M475.577 387.602C527.266 372.582 561.638 345.91 563.509 313.659C566.681 258.959 475.159 208.922 359.089 201.898C243.02 194.873 146.355 233.522 143.183 288.222C141.665 314.41 161.851 339.529 196.045 359.372C228.125 380.293 283.256 396.089 346.563 399.92C346.843 399.937 347.123 399.954 347.403 399.97C347.47 399.974 347.536 399.978 347.602 399.982C359.899 400.727 371.978 400.958 383.751 400.712C418.748 400.051 450.387 395.349 475.577 387.602ZM475.577 387.602C511.121 376.669 533.825 359.671 535 339.397C537.296 299.812 456.652 262.729 354.876 256.569C253.101 250.41 168.735 277.507 166.439 317.093C165.572 332.055 176.553 346.659 196.045 359.372C233.232 380.95 286.985 396.288 347.403 399.97C359.821 400.7 371.976 400.935 383.751 400.712C417.583 400.006 448.888 395.357 475.577 387.602Z" fill="url(#paint7_linear_75_755)"/>
<path d="M270.39 1185.55H445.697V1334.61H270.39V1185.55Z" fill="url(#paint8_linear_75_755)"/>
<path d="M270.39 1479.43H445.697V1628.49H270.39V1479.43Z" fill="url(#paint9_linear_75_755)"/>
<path d="M270.39 896.372H445.697V1045.43H270.39V896.372Z" fill="url(#paint10_linear_75_755)"/>
<path d="M270.39 571.425H445.697V720.484H270.39V571.425Z" fill="url(#paint11_linear_75_755)"/>
<path d="M270.39 273.306H445.697V422.365H270.39V273.306Z" fill="url(#paint12_linear_75_755)"/>
<path d="M270.39 88.4736H445.697V195.796H270.39V88.4736Z" fill="url(#paint13_linear_75_755)"/>
<defs>
<filter id="filter0_f_75_755" x="47.7588" y="0.337891" width="600.175" height="1632.5" filterUnits="userSpaceOnUse" color-interpolation-filters="sRGB">
<feFlood flood-opacity="0" result="BackgroundImageFix"/>
<feBlend mode="normal" in="SourceGraphic" in2="BackgroundImageFix" result="shape"/>
<feGaussianBlur stdDeviation="15.5" result="effect1_foregroundBlur_75_755"/>
</filter>
<linearGradient id="paint0_linear_75_755" x1="347.846" y1="31.3379" x2="347.846" y2="1601.84" gradientUnits="userSpaceOnUse">
<stop stop-color="#FAFAF8"/>
<stop offset="0.54" stop-color="#F3AB21"/>
<stop offset="1" stop-color="#A76E00"/>
</linearGradient>
<linearGradient id="paint1_linear_75_755" x1="572.443" y1="832.278" x2="93.5937" y2="832.278" gradientUnits="userSpaceOnUse">
<stop stop-color="#FF9839"/>
<stop offset="0.17" stop-color="#FCFCE4"/>
<stop offset="0.325009" stop-color="#F2C961"/>
<stop offset="0.471015" stop-color="#F6EEC1"/>
<stop offset="0.610008" stop-color="#F9C15D"/>
<stop offset="0.76" stop-color="#FFFDF9"/>
<stop offset="1" stop-color="#FFA048"/>
</linearGradient>
<linearGradient id="paint2_linear_75_755" x1="339.787" y1="1044.54" x2="338.683" y2="1336.9" gradientUnits="userSpaceOnUse">
<stop stop-color="#F5ECBD"/>
<stop offset="0.475373" stop-color="#7C5A1A"/>
</linearGradient>
<linearGradient id="paint3_linear_75_755" x1="324.308" y1="438.123" x2="378.904" y2="684.959" gradientUnits="userSpaceOnUse">
<stop stop-color="#F5ECBD"/>
<stop offset="0.475373" stop-color="#7C5A1A"/>
</linearGradient>
<linearGradient id="paint4_linear_75_755" x1="350.235" y1="6.79172" x2="351.834" y2="194.16" gradientUnits="userSpaceOnUse">
<stop stop-color="#F5ECBD"/>
<stop offset="0.475373" stop-color="#7C5A1A"/>
</linearGradient>
<linearGradient id="paint5_linear_75_755" x1="362.748" y1="1328.71" x2="362.748" y2="1479.57" gradientUnits="userSpaceOnUse">
<stop stop-color="#F6E6B2"/>
<stop offset="1" stop-color="#8E4F21"/>
</linearGradient>
<linearGradient id="paint6_linear_75_755" x1="375.591" y1="744.517" x2="360.141" y2="890.565" gradientUnits="userSpaceOnUse">
<stop stop-color="#F6E6B2"/>
<stop offset="1" stop-color="#8E4F21"/>
</linearGradient>
<linearGradient id="paint7_linear_75_755" x1="363.383" y1="191.565" x2="351.206" y2="300.318" gradientUnits="userSpaceOnUse">
<stop stop-color="#F6E6B2"/>
<stop offset="1" stop-color="#8E4F21"/>
</linearGradient>
<linearGradient id="paint8_linear_75_755" x1="572.443" y1="1260.08" x2="93.5937" y2="1260.08" gradientUnits="userSpaceOnUse">
<stop stop-color="#FF9839"/>
<stop offset="0.17" stop-color="#FCFCE4"/>
<stop offset="0.325009" stop-color="#F2C961"/>
<stop offset="0.471015" stop-color="#F6EEC1"/>
<stop offset="0.610008" stop-color="#F9C15D"/>
<stop offset="0.76" stop-color="#FFFDF9"/>
<stop offset="1" stop-color="#FFA048"/>
</linearGradient>
<linearGradient id="paint9_linear_75_755" x1="572.443" y1="1260.08" x2="93.5937" y2="1260.08" gradientUnits="userSpaceOnUse">
<stop stop-color="#FF9839"/>
<stop offset="0.17" stop-color="#FCFCE4"/>
<stop offset="0.325009" stop-color="#F2C961"/>
<stop offset="0.471015" stop-color="#F6EEC1"/>
<stop offset="0.610008" stop-color="#F9C15D"/>
<stop offset="0.76" stop-color="#FFFDF9"/>
<stop offset="1" stop-color="#FFA048"/>
</linearGradient>
<linearGradient id="paint10_linear_75_755" x1="572.443" y1="970.901" x2="93.5937" y2="970.901" gradientUnits="userSpaceOnUse">
<stop stop-color="#FF9839"/>
<stop offset="0.17" stop-color="#FCFCE4"/>
<stop offset="0.325009" stop-color="#F2C961"/>
<stop offset="0.471015" stop-color="#F6EEC1"/>
<stop offset="0.610008" stop-color="#F9C15D"/>
<stop offset="0.76" stop-color="#FFFDF9"/>
<stop offset="1" stop-color="#FFA048"/>
</linearGradient>
<linearGradient id="paint11_linear_75_755" x1="572.443" y1="645.954" x2="93.5937" y2="645.954" gradientUnits="userSpaceOnUse">
<stop stop-color="#FF9839"/>
<stop offset="0.17" stop-color="#FCFCE4"/>
<stop offset="0.325009" stop-color="#F2C961"/>
<stop offset="0.471015" stop-color="#F6EEC1"/>
<stop offset="0.610008" stop-color="#F9C15D"/>
<stop offset="0.76" stop-color="#FFFDF9"/>
<stop offset="1" stop-color="#FFA048"/>
</linearGradient>
<linearGradient id="paint12_linear_75_755" x1="572.443" y1="347.836" x2="93.5937" y2="347.836" gradientUnits="userSpaceOnUse">
<stop stop-color="#FF9839"/>
<stop offset="0.17" stop-color="#FCFCE4"/>
<stop offset="0.325009" stop-color="#F2C961"/>
<stop offset="0.471015" stop-color="#F6EEC1"/>
<stop offset="0.610008" stop-color="#F9C15D"/>
<stop offset="0.76" stop-color="#FFFDF9"/>
<stop offset="1" stop-color="#FFA048"/>
</linearGradient>
<linearGradient id="paint13_linear_75_755" x1="572.443" y1="142.135" x2="93.5937" y2="142.135" gradientUnits="userSpaceOnUse">
<stop stop-color="#FF9839"/>
<stop offset="0.17" stop-color="#FCFCE4"/>
<stop offset="0.325009" stop-color="#F2C961"/>
<stop offset="0.471015" stop-color="#F6EEC1"/>
<stop offset="0.610008" stop-color="#F9C15D"/>
<stop offset="0.76" stop-color="#FFFDF9"/>
<stop offset="1" stop-color="#FFA048"/>
</linearGradient>
</defs>
</svg>
