<svg width="815" height="589" viewBox="0 0 815 589" fill="none" xmlns="http://www.w3.org/2000/svg">
<path d="M1.19824 431.891L814.775 223.449V589H1.19824V431.891Z" fill="url(#paint0_linear_84_1065)"/>
<path d="M814.776 312.431L1.19966 431.453V-0.000161171H814.776V312.431Z" fill="url(#paint1_linear_84_1065)"/>
<path d="M452.921 157.15C452.921 141.507 466.635 129.406 482.157 131.353L698.553 158.495C711.559 160.126 721.317 171.184 721.317 184.293V259.568C721.317 273.47 710.381 284.913 696.492 285.541L480.096 295.33C465.29 296 452.921 284.178 452.921 269.357V157.15Z" fill="#CCCDE2"/>
<rect width="4.79279" height="116.358" transform="matrix(-1 0 0 1 506.837 160.636)" fill="#686565"/>
<rect width="4.79279" height="101.942" transform="matrix(-1 0 0 1 587.118 168.874)" fill="#686565"/>
<path d="M488.632 173.222L488.873 174.803C483.369 175.717 480.445 175.247 480.517 173.819L483.168 172.097C485.129 173.431 486.304 173.785 488.632 173.222Z" fill="#686565"/>
<path d="M490.281 164.963C493.334 164.507 493.214 169.918 490.281 170.516C487.348 171.113 483.733 171.113 480.478 173.995L481.242 167.775C484.608 166.156 487.228 165.42 490.281 164.963Z" fill="#E3E9E5"/>
<path d="M489.239 163.101C488.525 163.589 488.131 163.88 487.551 164.718C487.271 169.21 487.551 172.519 488.757 176.068C489.62 177.318 490.319 177.798 491.689 178.528C488.556 172.449 488.757 169.075 489.239 163.101Z" fill="#8894AC"/>
<path d="M516.559 162.605C520.162 166.809 521.547 169.44 523.027 174.553C521.94 179.575 519.108 180.483 512.1 180.422C515.457 176.022 515.842 171.184 516.559 162.605Z" fill="#8894AC"/>
<path d="M516.836 169.809C516.836 169.809 518.609 168.808 520.09 173.92C520.653 177.364 519.568 179.683 514.586 178.981C514.586 178.981 513.461 177.083 516.836 169.809Z" fill="#848587"/>
<path d="M518.805 161.941C521.395 163.245 523.747 165.596 523.626 166.194C523.506 166.791 522.863 167.318 522.863 167.318V173.292C522.863 173.292 524.51 175.26 521.176 178.809C518.966 178.634 518.605 171.957 518.605 171.957C518.605 171.957 519.187 171.058 519.087 170.762C518.997 170.904 519.24 170.868 519.087 170.762H517.359L515.591 177.439C515.591 177.439 515.149 179.828 512.538 180.355C509.927 180.883 502.828 180.792 497.713 180.883C494.963 180.332 493.408 180.053 491.165 178.352L488.634 171.148C487.528 166.321 488.227 165.257 489.236 163.066C494.261 161.84 497.088 161.476 502.133 160.922C508.643 160.48 512.293 160.37 518.805 161.941Z" fill="#A2B1D0"/>
<path d="M522.202 165.623C514.895 161.544 507.339 162.916 494.481 164.709C493.696 165.105 494.481 174.654 495.244 174.654C503.12 175.796 515.792 176.069 515.23 175.366C515.255 173.384 515.759 172.331 516.979 170.472C517.968 170.042 518.521 170.029 519.51 170.472C519.51 170.472 520.609 173.679 521.519 174.654C522.429 175.629 525.415 170.977 522.202 165.623Z" fill="#D1DBDC"/>
<path d="M495.302 165.676C494.477 166.234 494.709 167.385 495.116 167.845C495.523 168.306 495.953 167.902 496.778 167.343C497.602 166.785 497.934 165.108 497.526 164.647C497.119 164.187 496.127 165.118 495.302 165.676Z" fill="#FCFFE4"/>
<path d="M509.646 169.005C509.646 171.605 510.321 173.714 510.409 173.714C510.498 173.714 510.932 171.816 510.932 169.216C510.932 166.615 509.895 164.296 509.807 164.296C509.718 164.296 509.646 166.404 509.646 169.005Z" fill="#FCFFE4"/>
<path d="M502.097 174.767C505.053 175.044 507.486 174.975 507.49 174.937C507.495 174.898 505.361 174.507 502.405 174.23C499.449 173.953 496.757 174.157 496.753 174.195C496.748 174.234 499.141 174.49 502.097 174.767Z" fill="#FCFFE4"/>
<path d="M521.94 170.696C521.685 171.94 522.143 173.053 522.23 173.067C522.317 173.081 522.93 172.239 523.184 170.995C523.439 169.75 522.646 168.481 522.559 168.467C522.471 168.453 522.194 169.451 521.94 170.696Z" fill="#FCFFE4"/>
<path d="M521.291 167.572C517.516 166.622 515.505 166.279 512.292 166.342C511.949 167.086 511.896 167.569 512.292 168.661C517.043 168.728 518.448 169.02 521.131 169.504C521.602 168.669 521.572 168.259 521.291 167.572Z" fill="#FCFFE4"/>
<path d="M501.021 171.715C502.482 171.828 503.246 171.827 504.416 171.601C504.48 171.305 504.459 171.123 504.223 170.744C502.479 171.019 501.941 171 500.919 170.99C500.816 171.329 500.861 171.479 501.021 171.715Z" fill="#FCFFE4"/>
<path d="M505.202 169.773C506.178 169.944 506.685 169.979 507.448 169.825C507.472 169.554 507.447 169.386 507.267 169.026C506.127 169.199 505.769 169.156 505.09 169.1C505.042 169.407 505.081 169.548 505.202 169.773Z" fill="#FCFFE4"/>
<path d="M519.085 170.721C518.488 170.511 518.09 170.564 517.357 170.721C517.357 170.721 516.92 172.011 517.076 171.811C517.232 171.611 518.397 171.785 518.361 171.95C518.361 171.95 519.205 178.908 520.933 178.697C520.933 178.697 519.806 176.451 519.465 174.025C519.125 171.598 519.085 170.721 519.085 170.721Z" fill="#8894AC"/>
<path d="M571.382 180.31L571.593 181.69C566.791 182.487 564.241 182.076 564.303 180.831L566.616 179.329C568.326 180.493 569.352 180.801 571.382 180.31Z" fill="#686565"/>
<path d="M572.819 173.107C575.482 172.708 575.378 177.429 572.819 177.95C570.26 178.472 567.106 178.472 564.267 180.985L564.933 175.559C567.87 174.148 570.156 173.505 572.819 173.107Z" fill="#E3E9E5"/>
<path d="M571.908 171.481C571.285 171.907 570.942 172.161 570.436 172.891C570.192 176.81 570.436 179.697 571.487 182.793C572.241 183.883 572.85 184.302 574.046 184.939C571.312 179.635 571.487 176.692 571.908 171.481Z" fill="#8894AC"/>
<path d="M595.741 171.049C598.884 174.716 600.092 177.012 601.384 181.472C600.435 185.853 597.965 186.645 591.851 186.591C594.78 182.753 595.116 178.533 595.741 171.049Z" fill="#8894AC"/>
<path d="M595.986 177.333C595.986 177.333 597.533 176.46 598.825 180.919C599.316 183.924 598.37 185.947 594.024 185.334C594.024 185.334 593.042 183.678 595.986 177.333Z" fill="#848587"/>
<path d="M597.703 170.47C599.961 171.607 602.013 173.658 601.908 174.179C601.803 174.701 601.242 175.16 601.242 175.16V180.372C601.242 180.372 602.679 182.088 599.77 185.185C597.843 185.031 597.527 179.207 597.527 179.207C597.527 179.207 598.035 178.423 597.948 178.165C597.87 178.289 598.082 178.257 597.948 178.165H596.441L594.899 183.989C594.899 183.989 594.513 186.074 592.235 186.533C589.957 186.993 583.765 186.914 579.303 186.993C576.904 186.513 575.547 186.269 573.591 184.786L571.383 178.502C570.418 174.29 571.028 173.363 571.908 171.451C576.291 170.382 578.757 170.064 583.158 169.581C588.838 169.195 592.022 169.1 597.703 170.47Z" fill="#A2B1D0"/>
<path d="M600.667 173.681C594.293 170.124 587.701 171.321 576.485 172.884C575.8 173.229 576.485 181.56 577.151 181.56C584.021 182.556 595.075 182.794 594.585 182.181C594.607 180.452 595.046 179.533 596.111 177.912C596.973 177.536 597.456 177.525 598.319 177.912C598.319 177.912 599.277 180.709 600.071 181.56C600.865 182.41 603.47 178.352 600.667 173.681Z" fill="#D1DBDC"/>
<path d="M577.199 173.728C576.48 174.215 576.681 175.218 577.037 175.62C577.392 176.022 577.767 175.669 578.486 175.182C579.206 174.695 579.495 173.232 579.139 172.83C578.784 172.429 577.919 173.241 577.199 173.728Z" fill="#FCFFE4"/>
<path d="M589.712 176.632C589.712 178.9 590.301 180.74 590.378 180.74C590.456 180.74 590.834 179.084 590.834 176.816C590.834 174.547 589.93 172.524 589.853 172.524C589.775 172.524 589.712 174.363 589.712 176.632Z" fill="#FCFFE4"/>
<path d="M583.131 181.658C585.71 181.9 587.832 181.84 587.836 181.806C587.84 181.772 585.979 181.431 583.4 181.19C580.821 180.948 578.473 181.125 578.469 181.159C578.465 181.193 580.552 181.416 583.131 181.658Z" fill="#FCFFE4"/>
<path d="M600.438 178.107C600.216 179.192 600.615 180.163 600.692 180.175C600.768 180.187 601.302 179.453 601.524 178.367C601.746 177.282 601.055 176.174 600.978 176.162C600.902 176.15 600.66 177.021 600.438 178.107Z" fill="#FCFFE4"/>
<path d="M599.87 175.382C596.577 174.553 594.822 174.255 592.02 174.309C591.721 174.958 591.674 175.379 592.02 176.332C596.164 176.391 597.389 176.645 599.73 177.068C600.141 176.339 600.115 175.981 599.87 175.382Z" fill="#FCFFE4"/>
<path d="M582.189 178.996C583.463 179.095 584.13 179.094 585.151 178.897C585.206 178.638 585.188 178.48 584.982 178.149C583.461 178.389 582.991 178.373 582.099 178.364C582.01 178.66 582.049 178.79 582.189 178.996Z" fill="#FCFFE4"/>
<path d="M585.837 177.303C586.688 177.452 587.131 177.483 587.796 177.348C587.817 177.112 587.795 176.965 587.639 176.651C586.644 176.802 586.331 176.765 585.739 176.716C585.697 176.984 585.731 177.106 585.837 177.303Z" fill="#FCFFE4"/>
<path d="M597.948 178.129C597.428 177.945 597.081 177.992 596.441 178.129C596.441 178.129 596.06 179.254 596.196 179.08C596.332 178.905 597.348 179.057 597.318 179.201C597.318 179.201 598.054 185.271 599.561 185.087C599.561 185.087 598.578 183.128 598.281 181.011C597.983 178.894 597.948 178.129 597.948 178.129Z" fill="#8894AC"/>
<path d="M488.632 198.284L488.873 199.865C483.369 200.779 480.445 200.309 480.517 198.881L483.168 197.159C485.129 198.493 486.304 198.847 488.632 198.284Z" fill="#686565"/>
<path d="M490.281 190.025C493.334 189.568 493.214 194.98 490.281 195.577C487.348 196.175 483.733 196.175 480.478 199.056L481.242 192.836C484.608 191.218 487.228 190.482 490.281 190.025Z" fill="#E3E9E5"/>
<path d="M489.239 188.162C488.525 188.65 488.131 188.941 487.551 189.778C487.271 194.271 487.551 197.579 488.757 201.129C489.62 202.379 490.319 202.859 491.689 203.589C488.556 197.509 488.757 194.136 489.239 188.162Z" fill="#8894AC"/>
<path d="M516.559 187.666C520.162 191.87 521.547 194.501 523.027 199.614C521.94 204.636 519.108 205.545 512.1 205.483C515.457 201.083 515.842 196.245 516.559 187.666Z" fill="#8894AC"/>
<path d="M516.836 194.87C516.836 194.87 518.609 193.869 520.09 198.981C520.653 202.425 519.568 204.744 514.586 204.042C514.586 204.042 513.461 202.144 516.836 194.87Z" fill="#848587"/>
<path d="M518.805 187.003C521.395 188.307 523.747 190.658 523.626 191.255C523.506 191.853 522.863 192.38 522.863 192.38V198.354C522.863 198.354 524.51 200.321 521.176 203.871C518.966 203.695 518.605 197.018 518.605 197.018C518.605 197.018 519.187 196.12 519.087 195.823C518.997 195.966 519.24 195.929 519.087 195.823H517.359L515.591 202.5C515.591 202.5 515.149 204.89 512.538 205.417C509.927 205.944 502.828 205.853 497.713 205.944C494.963 205.393 493.408 205.114 491.165 203.414L488.634 196.21C487.528 191.382 488.227 190.319 489.236 188.128C494.261 186.901 497.088 186.538 502.133 185.984C508.643 185.542 512.293 185.432 518.805 187.003Z" fill="#A2B1D0"/>
<path d="M522.202 190.684C514.895 186.605 507.339 187.978 494.481 189.77C493.696 190.166 494.481 199.715 495.244 199.715C503.12 200.857 515.792 201.13 515.23 200.427C515.255 198.445 515.759 197.392 516.979 195.533C517.968 195.103 518.521 195.09 519.51 195.533C519.51 195.533 520.609 198.74 521.519 199.715C522.429 200.69 525.415 196.038 522.202 190.684Z" fill="#D1DBDC"/>
<path d="M495.302 190.738C494.477 191.296 494.709 192.447 495.116 192.907C495.523 193.368 495.953 192.964 496.778 192.405C497.602 191.847 497.934 190.17 497.526 189.709C497.119 189.249 496.127 190.18 495.302 190.738Z" fill="#FCFFE4"/>
<path d="M509.646 194.066C509.646 196.667 510.321 198.775 510.409 198.775C510.498 198.775 510.932 196.878 510.932 194.277C510.932 191.677 509.895 189.357 509.807 189.357C509.718 189.357 509.646 191.466 509.646 194.066Z" fill="#FCFFE4"/>
<path d="M502.097 199.828C505.053 200.106 507.486 200.037 507.49 199.998C507.495 199.96 505.361 199.569 502.405 199.292C499.449 199.015 496.757 199.218 496.753 199.257C496.748 199.295 499.141 199.551 502.097 199.828Z" fill="#FCFFE4"/>
<path d="M521.94 195.757C521.685 197.002 522.143 198.115 522.23 198.128C522.317 198.142 522.93 197.301 523.184 196.056C523.439 194.812 522.646 193.542 522.559 193.528C522.471 193.515 522.194 194.513 521.94 195.757Z" fill="#FCFFE4"/>
<path d="M521.291 192.633C517.516 191.683 515.505 191.34 512.292 191.403C511.949 192.147 511.896 192.63 512.292 193.722C517.043 193.789 518.448 194.081 521.131 194.565C521.602 193.73 521.572 193.32 521.291 192.633Z" fill="#FCFFE4"/>
<path d="M501.021 196.776C502.482 196.889 503.246 196.888 504.416 196.662C504.48 196.366 504.459 196.184 504.223 195.805C502.479 196.08 501.941 196.061 500.919 196.051C500.816 196.39 500.861 196.54 501.021 196.776Z" fill="#FCFFE4"/>
<path d="M505.202 194.834C506.178 195.005 506.685 195.04 507.448 194.886C507.472 194.616 507.447 194.447 507.267 194.088C506.127 194.26 505.769 194.218 505.09 194.162C505.042 194.469 505.081 194.609 505.202 194.834Z" fill="#FCFFE4"/>
<path d="M519.085 195.783C518.488 195.572 518.09 195.625 517.357 195.783C517.357 195.783 516.92 197.072 517.076 196.872C517.232 196.672 518.397 196.846 518.361 197.011C518.361 197.011 519.205 203.969 520.933 203.758C520.933 203.758 519.806 201.513 519.465 199.086C519.125 196.66 519.085 195.783 519.085 195.783Z" fill="#8894AC"/>
<path d="M571.382 202.173L571.593 203.552C566.791 204.349 564.241 203.939 564.303 202.694L566.616 201.192C568.326 202.355 569.352 202.664 571.382 202.173Z" fill="#686565"/>
<path d="M572.819 194.969C575.482 194.571 575.378 199.292 572.819 199.813C570.26 200.334 567.106 200.334 564.267 202.848L564.933 197.422C567.87 196.01 570.156 195.368 572.819 194.969Z" fill="#E3E9E5"/>
<path d="M571.908 193.344C571.285 193.769 570.942 194.023 570.436 194.754C570.192 198.673 570.436 201.559 571.487 204.656C572.241 205.746 572.85 206.165 574.046 206.801C571.312 201.498 571.487 198.555 571.908 193.344Z" fill="#8894AC"/>
<path d="M595.741 192.911C598.884 196.578 600.092 198.873 601.384 203.333C600.435 207.715 597.965 208.507 591.851 208.453C594.78 204.615 595.116 200.395 595.741 192.911Z" fill="#8894AC"/>
<path d="M595.986 199.196C595.986 199.196 597.533 198.322 598.825 202.782C599.316 205.786 598.37 207.81 594.024 207.197C594.024 207.197 593.042 205.541 595.986 199.196Z" fill="#848587"/>
<path d="M597.703 192.333C599.961 193.47 602.013 195.521 601.908 196.042C601.803 196.563 601.242 197.023 601.242 197.023V202.235C601.242 202.235 602.679 203.951 599.77 207.047C597.843 206.894 597.527 201.07 597.527 201.07C597.527 201.07 598.035 200.286 597.948 200.027C597.87 200.151 598.082 200.12 597.948 200.027H596.441L594.899 205.852C594.899 205.852 594.513 207.936 592.235 208.396C589.957 208.856 583.765 208.777 579.303 208.856C576.904 208.375 575.547 208.132 573.591 206.649L571.383 200.365C570.418 196.153 571.028 195.225 571.908 193.314C576.291 192.244 578.757 191.927 583.158 191.444C588.838 191.058 592.022 190.962 597.703 192.333Z" fill="#A2B1D0"/>
<path d="M600.667 195.544C594.293 191.986 587.701 193.183 576.485 194.746C575.8 195.092 576.485 203.422 577.151 203.422C584.021 204.418 595.075 204.656 594.585 204.043C594.607 202.314 595.046 201.396 596.111 199.774C596.973 199.399 597.456 199.387 598.319 199.774C598.319 199.774 599.277 202.572 600.071 203.422C600.865 204.272 603.47 200.214 600.667 195.544Z" fill="#D1DBDC"/>
<path d="M577.199 195.591C576.48 196.078 576.681 197.081 577.037 197.483C577.392 197.885 577.767 197.532 578.486 197.045C579.206 196.558 579.495 195.095 579.139 194.693C578.784 194.292 577.919 195.104 577.199 195.591Z" fill="#FCFFE4"/>
<path d="M589.712 198.495C589.712 200.763 590.301 202.602 590.378 202.602C590.456 202.602 590.834 200.947 590.834 198.678C590.834 196.41 589.93 194.387 589.853 194.387C589.775 194.387 589.712 196.226 589.712 198.495Z" fill="#FCFFE4"/>
<path d="M583.131 203.521C585.71 203.762 587.832 203.702 587.836 203.669C587.84 203.635 585.979 203.294 583.4 203.053C580.821 202.811 578.473 202.988 578.469 203.022C578.465 203.056 580.552 203.279 583.131 203.521Z" fill="#FCFFE4"/>
<path d="M600.438 199.969C600.216 201.055 600.615 202.026 600.692 202.038C600.768 202.05 601.302 201.316 601.524 200.23C601.746 199.144 601.055 198.037 600.978 198.025C600.902 198.013 600.66 198.884 600.438 199.969Z" fill="#FCFFE4"/>
<path d="M599.87 197.244C596.577 196.415 594.822 196.116 592.02 196.171C591.721 196.82 591.674 197.241 592.02 198.194C596.164 198.253 597.389 198.507 599.73 198.93C600.141 198.201 600.115 197.843 599.87 197.244Z" fill="#FCFFE4"/>
<path d="M582.189 200.857C583.463 200.956 584.13 200.955 585.151 200.758C585.206 200.499 585.188 200.34 584.982 200.01C583.461 200.25 582.991 200.233 582.099 200.225C582.01 200.52 582.049 200.651 582.189 200.857Z" fill="#FCFFE4"/>
<path d="M585.837 199.164C586.688 199.313 587.131 199.344 587.796 199.209C587.817 198.974 587.795 198.827 587.639 198.513C586.644 198.663 586.331 198.626 585.739 198.578C585.697 198.845 585.731 198.968 585.837 199.164Z" fill="#FCFFE4"/>
<path d="M597.948 199.992C597.428 199.808 597.081 199.854 596.441 199.992C596.441 199.992 596.06 201.117 596.196 200.942C596.332 200.768 597.348 200.919 597.318 201.063C597.318 201.063 598.054 207.133 599.561 206.949C599.561 206.949 598.578 204.99 598.281 202.873C597.983 200.757 597.948 199.992 597.948 199.992Z" fill="#8894AC"/>
<path d="M488.632 223.346L488.873 224.928C483.369 225.841 480.445 225.371 480.517 223.944L483.168 222.222C485.129 223.555 486.304 223.909 488.632 223.346Z" fill="#686565"/>
<path d="M490.281 215.088C493.334 214.631 493.214 220.043 490.281 220.64C487.348 221.238 483.733 221.238 480.478 224.119L481.242 217.899C484.608 216.281 487.228 215.545 490.281 215.088Z" fill="#E3E9E5"/>
<path d="M489.239 213.226C488.525 213.714 488.131 214.005 487.551 214.842C487.271 219.335 487.551 222.643 488.757 226.193C489.62 227.443 490.319 227.923 491.689 228.653C488.556 222.573 488.757 219.2 489.239 213.226Z" fill="#8894AC"/>
<path d="M516.559 212.729C520.162 216.933 521.547 219.565 523.027 224.678C521.94 229.7 519.108 230.608 512.1 230.546C515.457 226.146 515.842 221.309 516.559 212.729Z" fill="#8894AC"/>
<path d="M516.836 219.933C516.836 219.933 518.609 218.932 520.09 224.045C520.653 227.489 519.568 229.808 514.586 229.105C514.586 229.105 513.461 227.207 516.836 219.933Z" fill="#848587"/>
<path d="M518.805 212.066C521.395 213.37 523.747 215.721 523.626 216.318C523.506 216.916 522.863 217.443 522.863 217.443V223.417C522.863 223.417 524.51 225.384 521.176 228.934C518.966 228.758 518.605 222.081 518.605 222.081C518.605 222.081 519.187 221.183 519.087 220.886C518.997 221.028 519.24 220.992 519.087 220.886H517.359L515.591 227.563C515.591 227.563 515.149 229.953 512.538 230.48C509.927 231.007 502.828 230.916 497.713 231.007C494.963 230.456 493.408 230.177 491.165 228.477L488.634 221.273C487.528 216.445 488.227 215.382 489.236 213.19C494.261 211.964 497.088 211.601 502.133 211.047C508.643 210.605 512.293 210.495 518.805 212.066Z" fill="#A2B1D0"/>
<path d="M522.202 215.747C514.895 211.669 507.339 213.041 494.481 214.833C493.696 215.229 494.481 224.778 495.244 224.778C503.12 225.92 515.792 226.193 515.23 225.49C515.255 223.508 515.759 222.456 516.979 220.597C517.968 220.166 518.521 220.153 519.51 220.597C519.51 220.597 520.609 223.804 521.519 224.778C522.429 225.753 525.415 221.101 522.202 215.747Z" fill="#D1DBDC"/>
<path d="M495.302 215.801C494.477 216.359 494.709 217.51 495.116 217.97C495.523 218.431 495.953 218.027 496.778 217.468C497.602 216.91 497.934 215.233 497.526 214.772C497.119 214.312 496.127 215.243 495.302 215.801Z" fill="#FCFFE4"/>
<path d="M509.646 219.129C509.646 221.73 510.321 223.838 510.409 223.838C510.498 223.838 510.932 221.941 510.932 219.34C510.932 216.74 509.895 214.42 509.807 214.42C509.718 214.42 509.646 216.529 509.646 219.129Z" fill="#FCFFE4"/>
<path d="M502.097 224.891C505.053 225.169 507.486 225.1 507.49 225.061C507.495 225.023 505.361 224.632 502.405 224.355C499.449 224.078 496.757 224.281 496.753 224.32C496.748 224.358 499.141 224.614 502.097 224.891Z" fill="#FCFFE4"/>
<path d="M521.94 220.82C521.685 222.065 522.143 223.178 522.23 223.191C522.317 223.205 522.93 222.364 523.184 221.119C523.439 219.875 522.646 218.605 522.559 218.591C522.471 218.578 522.194 219.576 521.94 220.82Z" fill="#FCFFE4"/>
<path d="M521.291 217.696C517.516 216.746 515.505 216.404 512.292 216.466C511.949 217.21 511.896 217.693 512.292 218.785C517.043 218.853 518.448 219.144 521.131 219.629C521.602 218.794 521.572 218.383 521.291 217.696Z" fill="#FCFFE4"/>
<path d="M501.021 221.84C502.482 221.952 503.246 221.952 504.416 221.726C504.48 221.429 504.459 221.247 504.223 220.868C502.479 221.143 501.941 221.124 500.919 221.115C500.816 221.453 500.861 221.603 501.021 221.84Z" fill="#FCFFE4"/>
<path d="M505.202 219.898C506.178 220.069 506.685 220.104 507.448 219.95C507.472 219.679 507.447 219.511 507.267 219.151C506.127 219.324 505.769 219.281 505.09 219.225C505.042 219.532 505.081 219.673 505.202 219.898Z" fill="#FCFFE4"/>
<path d="M519.085 220.846C518.488 220.635 518.09 220.688 517.357 220.846C517.357 220.846 516.92 222.135 517.076 221.935C517.232 221.735 518.397 221.909 518.361 222.074C518.361 222.074 519.205 229.032 520.933 228.821C520.933 228.821 519.806 226.576 519.465 224.149C519.125 221.723 519.085 220.846 519.085 220.846Z" fill="#8894AC"/>
<path d="M571.382 224.037L571.593 225.416C566.791 226.213 564.241 225.803 564.303 224.558L566.616 223.056C568.326 224.219 569.352 224.528 571.382 224.037Z" fill="#686565"/>
<path d="M572.819 216.832C575.482 216.433 575.378 221.154 572.819 221.675C570.26 222.197 567.106 222.197 564.267 224.71L564.933 219.284C567.87 217.873 570.156 217.23 572.819 216.832Z" fill="#E3E9E5"/>
<path d="M571.908 215.208C571.285 215.633 570.942 215.887 570.436 216.618C570.192 220.537 570.436 223.423 571.487 226.519C572.241 227.61 572.85 228.029 574.046 228.665C571.312 223.362 571.487 220.419 571.908 215.208Z" fill="#8894AC"/>
<path d="M595.741 214.775C598.884 218.442 600.092 220.738 601.384 225.198C600.435 229.579 597.965 230.371 591.851 230.317C594.78 226.479 595.116 222.259 595.741 214.775Z" fill="#8894AC"/>
<path d="M595.986 221.058C595.986 221.058 597.533 220.185 598.825 224.645C599.316 227.649 598.37 229.672 594.024 229.059C594.024 229.059 593.042 227.404 595.986 221.058Z" fill="#848587"/>
<path d="M597.703 214.196C599.961 215.333 602.013 217.384 601.908 217.905C601.803 218.427 601.242 218.886 601.242 218.886V224.098C601.242 224.098 602.679 225.814 599.77 228.911C597.843 228.757 597.527 222.933 597.527 222.933C597.527 222.933 598.035 222.149 597.948 221.891C597.87 222.015 598.082 221.983 597.948 221.891H596.441L594.899 227.715C594.899 227.715 594.513 229.8 592.235 230.26C589.957 230.719 583.765 230.64 579.303 230.719C576.904 230.239 575.547 229.996 573.591 228.512L571.383 222.228C570.418 218.016 571.028 217.089 571.908 215.177C576.291 214.108 578.757 213.791 583.158 213.307C588.838 212.922 592.022 212.826 597.703 214.196Z" fill="#A2B1D0"/>
<path d="M600.667 217.407C594.293 213.85 587.701 215.047 576.485 216.61C575.8 216.955 576.485 225.286 577.151 225.286C584.021 226.282 595.075 226.52 594.585 225.907C594.607 224.178 595.046 223.259 596.111 221.638C596.973 221.262 597.456 221.251 598.319 221.638C598.319 221.638 599.277 224.435 600.071 225.286C600.865 226.136 603.47 222.078 600.667 217.407Z" fill="#D1DBDC"/>
<path d="M577.199 217.455C576.48 217.942 576.681 218.945 577.037 219.347C577.392 219.749 577.767 219.396 578.486 218.909C579.206 218.422 579.495 216.959 579.139 216.557C578.784 216.156 577.919 216.968 577.199 217.455Z" fill="#FCFFE4"/>
<path d="M589.712 220.357C589.712 222.626 590.301 224.465 590.378 224.465C590.456 224.465 590.834 222.81 590.834 220.541C590.834 218.273 589.93 216.25 589.853 216.25C589.775 216.25 589.712 218.089 589.712 220.357Z" fill="#FCFFE4"/>
<path d="M583.131 225.383C585.71 225.625 587.832 225.565 587.836 225.532C587.84 225.498 585.979 225.157 583.4 224.915C580.821 224.674 578.473 224.851 578.469 224.885C578.465 224.918 580.552 225.142 583.131 225.383Z" fill="#FCFFE4"/>
<path d="M600.438 221.833C600.216 222.918 600.615 223.889 600.692 223.901C600.768 223.913 601.302 223.179 601.524 222.093C601.746 221.008 601.055 219.9 600.978 219.888C600.902 219.876 600.66 220.747 600.438 221.833Z" fill="#FCFFE4"/>
<path d="M599.87 219.107C596.577 218.279 594.822 217.98 592.02 218.035C591.721 218.684 591.674 219.105 592.02 220.058C596.164 220.117 597.389 220.371 599.73 220.793C600.141 220.065 600.115 219.707 599.87 219.107Z" fill="#FCFFE4"/>
<path d="M582.189 222.721C583.463 222.819 584.13 222.819 585.151 222.622C585.206 222.363 585.188 222.204 584.982 221.874C583.461 222.114 582.991 222.097 582.099 222.089C582.01 222.384 582.049 222.515 582.189 222.721Z" fill="#FCFFE4"/>
<path d="M585.837 221.028C586.688 221.177 587.131 221.208 587.796 221.073C587.817 220.837 587.795 220.69 587.639 220.376C586.644 220.527 586.331 220.49 585.739 220.441C585.697 220.709 585.731 220.831 585.837 221.028Z" fill="#FCFFE4"/>
<path d="M597.948 221.856C597.428 221.672 597.081 221.718 596.441 221.856C596.441 221.856 596.06 222.98 596.196 222.806C596.332 222.631 597.348 222.783 597.318 222.927C597.318 222.927 598.054 228.997 599.561 228.813C599.561 228.813 598.578 226.854 598.281 224.737C597.983 222.62 597.948 221.856 597.948 221.856Z" fill="#8894AC"/>
<path d="M488.632 248.408L488.873 249.989C483.369 250.903 480.445 250.433 480.517 249.005L483.168 247.283C485.129 248.617 486.304 248.971 488.632 248.408Z" fill="#686565"/>
<path d="M490.281 240.15C493.334 239.693 493.214 245.105 490.281 245.702C487.348 246.3 483.733 246.3 480.478 249.181L481.242 242.961C484.608 241.343 487.228 240.607 490.281 240.15Z" fill="#E3E9E5"/>
<path d="M489.239 238.287C488.525 238.775 488.131 239.066 487.551 239.904C487.271 244.396 487.551 247.705 488.757 251.254C489.62 252.504 490.319 252.984 491.689 253.714C488.556 247.635 488.757 244.261 489.239 238.287Z" fill="#8894AC"/>
<path d="M516.559 237.79C520.162 241.993 521.547 244.625 523.027 249.738C521.94 254.76 519.108 255.668 512.1 255.606C515.457 251.206 515.842 246.369 516.559 237.79Z" fill="#8894AC"/>
<path d="M516.836 244.995C516.836 244.995 518.609 243.994 520.09 249.106C520.653 252.55 519.568 254.869 514.586 254.167C514.586 254.167 513.461 252.269 516.836 244.995Z" fill="#848587"/>
<path d="M518.805 237.128C521.395 238.432 523.747 240.783 523.626 241.381C523.506 241.978 522.863 242.505 522.863 242.505V248.479C522.863 248.479 524.51 250.447 521.176 253.996C518.966 253.821 518.605 247.144 518.605 247.144C518.605 247.144 519.187 246.245 519.087 245.949C518.997 246.091 519.24 246.055 519.087 245.949H517.359L515.591 252.626C515.591 252.626 515.149 255.015 512.538 255.543C509.927 256.07 502.828 255.979 497.713 256.07C494.963 255.519 493.408 255.24 491.165 253.539L488.634 246.335C487.528 241.508 488.227 240.444 489.236 238.253C494.261 237.027 497.088 236.663 502.133 236.109C508.643 235.667 512.293 235.557 518.805 237.128Z" fill="#A2B1D0"/>
<path d="M522.202 240.809C514.895 236.731 507.339 238.103 494.481 239.895C493.696 240.291 494.481 249.84 495.244 249.84C503.12 250.982 515.792 251.255 515.23 250.552C515.255 248.57 515.759 247.518 516.979 245.659C517.968 245.228 518.521 245.215 519.51 245.659C519.51 245.659 520.609 248.866 521.519 249.84C522.429 250.815 525.415 246.163 522.202 240.809Z" fill="#D1DBDC"/>
<path d="M495.302 240.862C494.477 241.42 494.709 242.571 495.116 243.031C495.523 243.492 495.953 243.088 496.778 242.53C497.602 241.971 497.934 240.294 497.526 239.833C497.119 239.373 496.127 240.304 495.302 240.862Z" fill="#FCFFE4"/>
<path d="M509.646 244.19C509.646 246.791 510.321 248.899 510.409 248.899C510.498 248.899 510.932 247.002 510.932 244.401C510.932 241.801 509.895 239.481 509.807 239.481C509.718 239.481 509.646 241.59 509.646 244.19Z" fill="#FCFFE4"/>
<path d="M502.097 249.952C505.053 250.23 507.486 250.161 507.49 250.122C507.495 250.084 505.361 249.693 502.405 249.416C499.449 249.139 496.757 249.342 496.753 249.381C496.748 249.419 499.141 249.675 502.097 249.952Z" fill="#FCFFE4"/>
<path d="M521.94 245.883C521.685 247.127 522.143 248.24 522.23 248.254C522.317 248.268 522.93 247.426 523.184 246.182C523.439 244.937 522.646 243.668 522.559 243.654C522.471 243.64 522.194 244.638 521.94 245.883Z" fill="#FCFFE4"/>
<path d="M521.291 242.758C517.516 241.808 515.505 241.466 512.292 241.528C511.949 242.272 511.896 242.755 512.292 243.847C517.043 243.915 518.448 244.206 521.131 244.691C521.602 243.856 521.572 243.445 521.291 242.758Z" fill="#FCFFE4"/>
<path d="M501.021 246.901C502.482 247.013 503.246 247.013 504.416 246.787C504.48 246.49 504.459 246.308 504.223 245.929C502.479 246.205 501.941 246.186 500.919 246.176C500.816 246.515 500.861 246.664 501.021 246.901Z" fill="#FCFFE4"/>
<path d="M505.202 244.959C506.178 245.13 506.685 245.165 507.448 245.011C507.472 244.741 507.447 244.572 507.267 244.213C506.127 244.385 505.769 244.343 505.09 244.287C505.042 244.594 505.081 244.734 505.202 244.959Z" fill="#FCFFE4"/>
<path d="M519.085 245.908C518.488 245.698 518.09 245.751 517.357 245.908C517.357 245.908 516.92 247.198 517.076 246.998C517.232 246.798 518.397 246.972 518.361 247.137C518.361 247.137 519.205 254.095 520.933 253.884C520.933 253.884 519.806 251.638 519.465 249.212C519.125 246.785 519.085 245.908 519.085 245.908Z" fill="#8894AC"/>
<path d="M571.382 245.898L571.593 247.278C566.791 248.075 564.241 247.665 564.303 246.42L566.616 244.917C568.326 246.081 569.352 246.389 571.382 245.898Z" fill="#686565"/>
<path d="M572.819 238.695C575.482 238.297 575.378 243.018 572.819 243.539C570.26 244.06 567.106 244.06 564.267 246.574L564.933 241.148C567.87 239.736 570.156 239.094 572.819 238.695Z" fill="#E3E9E5"/>
<path d="M571.908 237.069C571.285 237.495 570.942 237.749 570.436 238.479C570.192 242.398 570.436 245.285 571.487 248.381C572.241 249.471 572.85 249.89 574.046 250.527C571.312 245.224 571.487 242.281 571.908 237.069Z" fill="#8894AC"/>
<path d="M595.741 236.637C598.884 240.304 600.092 242.6 601.384 247.06C600.435 251.441 597.965 252.233 591.851 252.179C594.78 248.341 595.116 244.121 595.741 236.637Z" fill="#8894AC"/>
<path d="M595.986 242.922C595.986 242.922 597.533 242.048 598.825 246.508C599.316 249.513 598.37 251.536 594.024 250.923C594.024 250.923 593.042 249.267 595.986 242.922Z" fill="#848587"/>
<path d="M597.703 236.059C599.961 237.196 602.013 239.247 601.908 239.768C601.803 240.289 601.242 240.749 601.242 240.749V245.96C601.242 245.96 602.679 247.677 599.77 250.773C597.843 250.62 597.527 244.795 597.527 244.795C597.527 244.795 598.035 244.011 597.948 243.753C597.87 243.877 598.082 243.845 597.948 243.753H596.441L594.899 249.577C594.899 249.577 594.513 251.662 592.235 252.122C589.957 252.582 583.765 252.502 579.303 252.582C576.904 252.101 575.547 251.858 573.591 250.374L571.383 244.09C570.418 239.879 571.028 238.951 571.908 237.039C576.291 235.97 578.757 235.653 583.158 235.17C588.838 234.784 592.022 234.688 597.703 236.059Z" fill="#A2B1D0"/>
<path d="M600.667 239.27C594.293 235.712 587.701 236.909 576.485 238.473C575.8 238.818 576.485 247.148 577.151 247.148C584.021 248.144 595.075 248.382 594.585 247.769C594.607 246.04 595.046 245.122 596.111 243.5C596.973 243.125 597.456 243.113 598.319 243.5C598.319 243.5 599.277 246.298 600.071 247.148C600.865 247.998 603.47 243.94 600.667 239.27Z" fill="#D1DBDC"/>
<path d="M577.199 239.317C576.48 239.804 576.681 240.807 577.037 241.209C577.392 241.611 577.767 241.258 578.486 240.771C579.206 240.284 579.495 238.821 579.139 238.419C578.784 238.018 577.919 238.83 577.199 239.317Z" fill="#FCFFE4"/>
<path d="M589.712 242.221C589.712 244.489 590.301 246.328 590.378 246.328C590.456 246.328 590.834 244.673 590.834 242.405C590.834 240.136 589.93 238.113 589.853 238.113C589.775 238.113 589.712 239.952 589.712 242.221Z" fill="#FCFFE4"/>
<path d="M583.131 247.247C585.71 247.488 587.832 247.429 587.836 247.395C587.84 247.361 585.979 247.02 583.4 246.779C580.821 246.537 578.473 246.714 578.469 246.748C578.465 246.782 580.552 247.005 583.131 247.247Z" fill="#FCFFE4"/>
<path d="M600.438 243.696C600.216 244.782 600.615 245.753 600.692 245.764C600.768 245.776 601.302 245.042 601.524 243.957C601.746 242.871 601.055 241.764 600.978 241.752C600.902 241.74 600.66 242.61 600.438 243.696Z" fill="#FCFFE4"/>
<path d="M599.87 240.97C596.577 240.142 594.822 239.843 592.02 239.897C591.721 240.546 591.674 240.968 592.02 241.921C596.164 241.979 597.389 242.234 599.73 242.656C600.141 241.928 600.115 241.57 599.87 240.97Z" fill="#FCFFE4"/>
<path d="M582.189 244.585C583.463 244.683 584.13 244.683 585.151 244.486C585.206 244.227 585.188 244.068 584.982 243.737C583.461 243.977 582.991 243.961 582.099 243.952C582.01 244.248 582.049 244.379 582.189 244.585Z" fill="#FCFFE4"/>
<path d="M585.837 242.891C586.688 243.04 587.131 243.071 587.796 242.937C587.817 242.701 587.795 242.554 587.639 242.24C586.644 242.391 586.331 242.354 585.739 242.305C585.697 242.572 585.731 242.695 585.837 242.891Z" fill="#FCFFE4"/>
<path d="M597.948 243.718C597.428 243.534 597.081 243.58 596.441 243.718C596.441 243.718 596.06 244.843 596.196 244.668C596.332 244.494 597.348 244.645 597.318 244.789C597.318 244.789 598.054 250.859 599.561 250.675C599.561 250.675 598.578 248.716 598.281 246.599C597.983 244.483 597.948 243.718 597.948 243.718Z" fill="#8894AC"/>
<path d="M34.749 109.79C34.749 94.1445 48.4672 82.0423 63.9909 83.9932L376.243 123.234C389.247 124.868 399.001 135.925 399.001 149.031V268.588C399.001 282.49 388.066 293.932 374.179 294.562L61.9263 308.714C47.12 309.385 34.749 297.562 34.749 282.741V109.79Z" fill="#CCCDE2"/>
<path opacity="0.6" d="M620.32 342.592L-0.000658095 430.423V-0.000214577H628.793L620.32 342.592Z" fill="url(#paint2_linear_84_1065)"/>
<rect width="5.7819" height="165.216" transform="matrix(-1 0 0 1 124.558 121.318)" fill="#686565"/>
<rect width="4.33643" height="144.098" transform="matrix(-1 0 0 1 232.969 133.74)" fill="#686565"/>
<rect width="5.7819" height="129.192" transform="matrix(-1 0 0 1 326.927 147.405)" fill="#686565"/>
<path d="M100.902 138.383L101.229 140.633C93.7799 141.933 89.8227 141.264 89.9197 139.233L93.508 136.783C96.1611 138.68 97.7516 139.183 100.902 138.383Z" fill="#686565"/>
<path d="M103.132 126.633C107.264 125.983 107.101 133.683 103.132 134.533C99.1625 135.383 94.2692 135.383 89.8653 139.483L90.8986 130.633C95.454 128.331 98.9999 127.283 103.132 126.633Z" fill="#E3E9E5"/>
<path d="M101.719 123.982C100.752 124.677 100.22 125.091 99.4351 126.282C99.0561 132.674 99.4351 137.382 101.066 142.432C102.235 144.21 103.18 144.893 105.035 145.932C100.794 137.282 101.066 132.482 101.719 123.982Z" fill="#8894AC"/>
<path d="M138.689 123.276C143.565 129.257 145.439 133.002 147.442 140.276C145.97 147.421 142.139 148.713 132.654 148.625C137.197 142.365 137.718 135.483 138.689 123.276Z" fill="#8894AC"/>
<path d="M139.067 133.526C139.067 133.526 141.467 132.102 143.471 139.376C144.233 144.276 142.765 147.576 136.023 146.576C136.023 146.576 134.501 143.876 139.067 133.526Z" fill="#848587"/>
<path d="M141.738 122.334C145.242 124.189 148.426 127.534 148.263 128.384C148.099 129.234 147.23 129.984 147.23 129.984V138.483C147.23 138.483 149.459 141.283 144.946 146.333C141.956 146.083 141.466 136.584 141.466 136.584C141.466 136.584 142.254 135.305 142.119 134.884C141.998 135.086 142.326 135.034 142.119 134.884H139.781L137.389 144.383C137.389 144.383 136.791 147.783 133.257 148.533C129.723 149.283 120.116 149.154 113.194 149.283C109.472 148.499 107.368 148.103 104.332 145.683L100.907 135.434C99.4109 128.565 100.356 127.052 101.722 123.934C108.522 122.19 112.348 121.672 119.175 120.884C127.986 120.255 132.926 120.099 141.738 122.334Z" fill="#A2B1D0"/>
<path d="M146.332 127.571C136.444 121.769 126.218 123.721 108.817 126.271C107.755 126.834 108.817 140.421 109.85 140.421C120.509 142.046 137.658 142.433 136.897 141.434C136.931 138.614 137.612 137.116 139.264 134.471C140.602 133.859 141.351 133.84 142.689 134.471C142.689 134.471 144.176 139.034 145.408 140.421C146.64 141.808 150.68 135.189 146.332 127.571Z" fill="#D1DBDC"/>
<path d="M109.926 127.647C108.81 128.441 109.123 130.078 109.674 130.733C110.225 131.389 110.806 130.814 111.923 130.019C113.039 129.225 113.487 126.839 112.936 126.183C112.385 125.528 111.042 126.853 109.926 127.647Z" fill="#FCFFE4"/>
<path d="M129.338 132.382C129.338 136.083 130.251 139.082 130.371 139.082C130.491 139.082 131.078 136.383 131.078 132.682C131.078 128.982 129.676 125.683 129.556 125.683C129.436 125.683 129.338 128.682 129.338 132.382Z" fill="#FCFFE4"/>
<path d="M119.126 140.582C123.127 140.976 126.419 140.878 126.425 140.823C126.431 140.768 123.544 140.212 119.543 139.818C115.542 139.424 111.9 139.713 111.894 139.768C111.887 139.823 115.125 140.187 119.126 140.582Z" fill="#FCFFE4"/>
<path d="M145.977 134.79C145.633 136.561 146.252 138.145 146.37 138.164C146.488 138.183 147.317 136.986 147.662 135.216C148.006 133.445 146.933 131.639 146.815 131.619C146.697 131.6 146.322 133.019 145.977 134.79Z" fill="#FCFFE4"/>
<path d="M145.102 130.344C139.993 128.993 137.271 128.505 132.923 128.594C132.459 129.653 132.388 130.34 132.923 131.894C139.352 131.99 141.254 132.405 144.885 133.094C145.523 131.906 145.482 131.322 145.102 130.344Z" fill="#FCFFE4"/>
<path d="M117.669 136.239C119.646 136.399 120.68 136.399 122.264 136.077C122.349 135.655 122.321 135.396 122.002 134.857C119.642 135.248 118.913 135.221 117.53 135.208C117.391 135.69 117.453 135.903 117.669 136.239Z" fill="#FCFFE4"/>
<path d="M123.326 133.477C124.647 133.72 125.334 133.77 126.366 133.551C126.399 133.166 126.365 132.926 126.122 132.414C124.579 132.66 124.094 132.6 123.175 132.52C123.11 132.957 123.163 133.156 123.326 133.477Z" fill="#FCFFE4"/>
<path d="M142.113 134.826C141.306 134.526 140.768 134.602 139.775 134.826C139.775 134.826 139.184 136.661 139.395 136.376C139.606 136.091 141.182 136.339 141.135 136.574C141.135 136.574 142.276 146.473 144.614 146.173C144.614 146.173 143.089 142.978 142.629 139.526C142.168 136.073 142.113 134.826 142.113 134.826Z" fill="#8894AC"/>
<path d="M212.89 148.469L213.175 150.432C206.677 151.566 203.225 150.982 203.31 149.21L206.44 147.073C208.754 148.728 210.142 149.168 212.89 148.469Z" fill="#686565"/>
<path d="M214.832 138.219C218.436 137.652 218.295 144.369 214.832 145.111C211.37 145.852 207.101 145.852 203.259 149.429L204.161 141.709C208.134 139.7 211.228 138.786 214.832 138.219Z" fill="#E3E9E5"/>
<path d="M213.603 135.908C212.76 136.514 212.296 136.875 211.611 137.915C211.28 143.49 211.611 147.597 213.034 152.002C214.054 153.553 214.878 154.15 216.496 155.055C212.797 147.51 213.034 143.323 213.603 135.908Z" fill="#8894AC"/>
<path d="M245.852 135.291C250.106 140.508 251.74 143.774 253.488 150.12C252.204 156.353 248.862 157.48 240.588 157.404C244.551 151.943 245.006 145.939 245.852 135.291Z" fill="#8894AC"/>
<path d="M246.184 144.233C246.184 144.233 248.278 142.99 250.026 149.336C250.69 153.61 249.409 156.489 243.528 155.616C243.528 155.616 242.2 153.261 246.184 144.233Z" fill="#848587"/>
<path d="M248.509 134.469C251.566 136.087 254.343 139.005 254.201 139.747C254.059 140.488 253.3 141.142 253.3 141.142V148.557C253.3 148.557 255.244 150.999 251.308 155.404C248.699 155.186 248.272 146.899 248.272 146.899C248.272 146.899 248.96 145.784 248.841 145.417C248.736 145.593 249.022 145.548 248.841 145.417H246.802L244.715 153.703C244.715 153.703 244.193 156.669 241.11 157.324C238.028 157.978 229.647 157.865 223.609 157.978C220.362 157.294 218.526 156.948 215.878 154.837L212.89 145.896C211.586 139.904 212.41 138.584 213.602 135.865C219.533 134.343 222.871 133.892 228.826 133.204C236.512 132.656 240.822 132.519 248.509 134.469Z" fill="#A2B1D0"/>
<path d="M252.518 139.038C243.892 133.976 234.971 135.679 219.792 137.904C218.865 138.395 219.792 150.247 220.693 150.247C229.991 151.664 244.951 152.003 244.287 151.131C244.317 148.671 244.911 147.364 246.352 145.057C247.519 144.523 248.172 144.507 249.34 145.057C249.34 145.057 250.637 149.037 251.711 150.247C252.786 151.457 256.311 145.683 252.518 139.038Z" fill="#D1DBDC"/>
<path d="M220.76 139.106C219.787 139.798 220.06 141.226 220.54 141.798C221.021 142.369 221.528 141.868 222.502 141.175C223.476 140.482 223.867 138.4 223.386 137.829C222.905 137.257 221.734 138.413 220.76 139.106Z" fill="#FCFFE4"/>
<path d="M237.693 143.235C237.693 146.462 238.49 149.079 238.594 149.079C238.699 149.079 239.211 146.724 239.211 143.496C239.211 140.268 237.988 137.39 237.883 137.39C237.778 137.39 237.693 140.007 237.693 143.235Z" fill="#FCFFE4"/>
<path d="M228.784 150.386C232.274 150.73 235.146 150.645 235.152 150.597C235.157 150.549 232.638 150.064 229.148 149.72C225.658 149.377 222.481 149.629 222.475 149.677C222.47 149.725 225.294 150.043 228.784 150.386Z" fill="#FCFFE4"/>
<path d="M252.209 145.334C251.908 146.879 252.449 148.26 252.552 148.277C252.655 148.294 253.378 147.25 253.679 145.705C253.979 144.161 253.043 142.585 252.94 142.568C252.837 142.551 252.509 143.79 252.209 145.334Z" fill="#FCFFE4"/>
<path d="M251.445 141.456C246.988 140.277 244.613 139.852 240.821 139.929C240.416 140.853 240.354 141.452 240.821 142.808C246.429 142.892 248.088 143.253 251.255 143.855C251.812 142.818 251.776 142.308 251.445 141.456Z" fill="#FCFFE4"/>
<path d="M227.514 146.599C229.238 146.739 230.141 146.738 231.522 146.458C231.597 146.089 231.572 145.863 231.293 145.393C229.235 145.735 228.599 145.711 227.393 145.699C227.272 146.12 227.325 146.306 227.514 146.599Z" fill="#FCFFE4"/>
<path d="M232.449 144.189C233.601 144.401 234.2 144.445 235.101 144.254C235.129 143.918 235.1 143.709 234.888 143.262C233.541 143.477 233.118 143.424 232.317 143.354C232.26 143.736 232.307 143.91 232.449 144.189Z" fill="#FCFFE4"/>
<path d="M248.84 145.366C248.136 145.104 247.666 145.17 246.8 145.366C246.8 145.366 246.284 146.966 246.468 146.718C246.652 146.47 248.028 146.686 247.986 146.89C247.986 146.89 248.982 155.526 251.021 155.264C251.021 155.264 249.691 152.477 249.289 149.466C248.887 146.454 248.84 145.366 248.84 145.366Z" fill="#8894AC"/>
<path d="M306.009 160.892L306.263 162.64C300.478 163.649 297.405 163.13 297.48 161.552L300.267 159.65C302.327 161.123 303.563 161.514 306.009 160.892Z" fill="#686565"/>
<path d="M307.741 151.768C310.95 151.263 310.824 157.242 307.741 157.902C304.659 158.562 300.859 158.562 297.438 161.746L298.241 154.874C301.779 153.086 304.532 152.272 307.741 151.768Z" fill="#E3E9E5"/>
<path d="M306.644 149.71C305.894 150.25 305.48 150.571 304.871 151.497C304.576 156.46 304.871 160.116 306.137 164.038C307.045 165.419 307.779 165.95 309.22 166.756C305.926 160.039 306.137 156.311 306.644 149.71Z" fill="#8894AC"/>
<path d="M335.358 149.161C339.145 153.806 340.6 156.714 342.156 162.363C341.013 167.912 338.037 168.915 330.672 168.847C334.2 163.986 334.605 158.641 335.358 149.161Z" fill="#8894AC"/>
<path d="M335.65 157.12C335.65 157.12 337.513 156.014 339.07 161.663C339.661 165.468 338.521 168.031 333.285 167.255C333.285 167.255 332.103 165.158 335.65 157.12Z" fill="#848587"/>
<path d="M337.717 148.429C340.438 149.869 342.91 152.467 342.783 153.127C342.657 153.787 341.981 154.37 341.981 154.37V160.971C341.981 160.971 343.712 163.145 340.208 167.067C337.886 166.872 337.506 159.495 337.506 159.495C337.506 159.495 338.118 158.502 338.012 158.175C337.918 158.332 338.173 158.292 338.012 158.175H336.197L334.339 165.552C334.339 165.552 333.874 168.193 331.13 168.775C328.385 169.357 320.925 169.257 315.55 169.357C312.659 168.749 311.025 168.441 308.667 166.562L306.007 158.602C304.845 153.268 305.579 152.093 306.64 149.672C311.921 148.317 314.892 147.915 320.194 147.303C327.036 146.814 330.873 146.693 337.717 148.429Z" fill="#A2B1D0"/>
<path d="M341.285 152.496C333.606 147.99 325.664 149.506 312.151 151.486C311.326 151.923 312.151 162.474 312.953 162.474C321.231 163.736 334.549 164.038 333.958 163.261C333.985 161.071 334.513 159.908 335.796 157.854C336.835 157.379 337.416 157.364 338.456 157.854C338.456 157.854 339.611 161.397 340.567 162.474C341.524 163.552 344.662 158.412 341.285 152.496Z" fill="#D1DBDC"/>
<path d="M313.016 152.555C312.149 153.172 312.392 154.443 312.82 154.952C313.248 155.461 313.699 155.015 314.566 154.398C315.433 153.781 315.781 151.928 315.353 151.419C314.925 150.91 313.882 151.939 313.016 152.555Z" fill="#FCFFE4"/>
<path d="M328.096 156.233C328.096 159.106 328.805 161.436 328.898 161.436C328.992 161.436 329.447 159.339 329.447 156.466C329.447 153.592 328.358 151.03 328.265 151.03C328.172 151.03 328.096 153.359 328.096 156.233Z" fill="#FCFFE4"/>
<path d="M320.159 162.6C323.266 162.906 325.823 162.83 325.828 162.788C325.833 162.745 323.59 162.313 320.483 162.007C317.376 161.701 314.547 161.926 314.542 161.968C314.538 162.011 317.052 162.294 320.159 162.6Z" fill="#FCFFE4"/>
<path d="M341.013 158.103C340.745 159.478 341.226 160.708 341.318 160.723C341.41 160.738 342.053 159.808 342.321 158.433C342.589 157.058 341.755 155.655 341.663 155.64C341.572 155.625 341.28 156.728 341.013 158.103Z" fill="#FCFFE4"/>
<path d="M340.333 154.651C336.365 153.601 334.251 153.223 330.875 153.292C330.514 154.114 330.459 154.647 330.875 155.854C335.867 155.929 337.344 156.251 340.164 156.786C340.659 155.863 340.627 155.41 340.333 154.651Z" fill="#FCFFE4"/>
<path d="M319.029 159.227C320.564 159.352 321.368 159.351 322.598 159.102C322.664 158.774 322.642 158.573 322.394 158.154C320.562 158.458 319.996 158.437 318.922 158.426C318.814 158.801 318.861 158.966 319.029 159.227Z" fill="#FCFFE4"/>
<path d="M323.425 157.081C324.451 157.271 324.984 157.309 325.785 157.139C325.811 156.84 325.785 156.654 325.596 156.257C324.397 156.448 324.021 156.401 323.307 156.339C323.257 156.678 323.298 156.833 323.425 157.081Z" fill="#FCFFE4"/>
<path d="M338.014 158.13C337.387 157.897 336.969 157.956 336.198 158.13C336.198 158.13 335.739 159.555 335.903 159.334C336.066 159.113 337.291 159.305 337.254 159.488C337.254 159.488 338.14 167.176 339.956 166.943C339.956 166.943 338.772 164.461 338.414 161.78C338.056 159.099 338.014 158.13 338.014 158.13Z" fill="#8894AC"/>
<path d="M100.902 174.038L101.229 176.288C93.7799 177.588 89.8227 176.919 89.9197 174.888L93.508 172.438C96.1611 174.336 97.7516 174.839 100.902 174.038Z" fill="#686565"/>
<path d="M103.132 162.29C107.264 161.64 107.101 169.34 103.132 170.19C99.1625 171.04 94.2692 171.04 89.8653 175.139L90.8986 166.29C95.454 163.987 98.9999 162.94 103.132 162.29Z" fill="#E3E9E5"/>
<path d="M101.719 159.639C100.752 160.333 100.22 160.747 99.4351 161.939C99.0561 168.33 99.4351 173.038 101.066 178.088C102.235 179.866 103.18 180.55 105.035 181.588C100.794 172.938 101.066 168.138 101.719 159.639Z" fill="#8894AC"/>
<path d="M138.689 158.933C143.565 164.914 145.439 168.658 147.442 175.932C145.97 183.078 142.139 184.37 132.654 184.282C137.197 178.022 137.718 171.14 138.689 158.933Z" fill="#8894AC"/>
<path d="M139.067 169.183C139.067 169.183 141.467 167.759 143.471 175.033C144.233 179.933 142.765 183.233 136.023 182.233C136.023 182.233 134.501 179.533 139.067 169.183Z" fill="#848587"/>
<path d="M141.738 157.989C145.242 159.844 148.426 163.189 148.263 164.039C148.099 164.889 147.23 165.639 147.23 165.639V174.139C147.23 174.139 149.459 176.939 144.946 181.988C141.956 181.738 141.466 172.239 141.466 172.239C141.466 172.239 142.254 170.96 142.119 170.539C141.998 170.741 142.326 170.69 142.119 170.539H139.781L137.389 180.039C137.389 180.039 136.791 183.438 133.257 184.188C129.723 184.938 120.116 184.809 113.194 184.938C109.472 184.154 107.368 183.758 104.332 181.338L100.907 171.089C99.4109 164.22 100.356 162.707 101.722 159.589C108.522 157.845 112.348 157.328 119.175 156.539C127.986 155.91 132.926 155.754 141.738 157.989Z" fill="#A2B1D0"/>
<path d="M146.332 163.227C136.444 157.425 126.218 159.377 108.817 161.927C107.755 162.49 108.817 176.076 109.85 176.076C120.509 177.701 137.658 178.089 136.897 177.089C136.931 174.269 137.612 172.772 139.264 170.127C140.602 169.515 141.351 169.496 142.689 170.127C142.689 170.127 144.176 174.689 145.408 176.076C146.64 177.463 150.68 170.845 146.332 163.227Z" fill="#D1DBDC"/>
<path d="M109.926 163.303C108.81 164.097 109.123 165.734 109.674 166.389C110.225 167.044 110.806 166.47 111.923 165.675C113.039 164.881 113.487 162.494 112.936 161.839C112.385 161.184 111.042 162.509 109.926 163.303Z" fill="#FCFFE4"/>
<path d="M129.338 168.039C129.338 171.739 130.251 174.738 130.371 174.738C130.491 174.738 131.078 172.039 131.078 168.339C131.078 164.638 129.676 161.339 129.556 161.339C129.436 161.339 129.338 164.338 129.338 168.039Z" fill="#FCFFE4"/>
<path d="M119.126 176.237C123.127 176.631 126.419 176.533 126.425 176.478C126.431 176.424 123.544 175.868 119.543 175.473C115.542 175.079 111.9 175.369 111.894 175.424C111.887 175.478 115.125 175.843 119.126 176.237Z" fill="#FCFFE4"/>
<path d="M145.977 170.447C145.633 172.217 146.252 173.801 146.37 173.82C146.488 173.84 147.317 172.643 147.662 170.872C148.006 169.101 146.933 167.295 146.815 167.275C146.697 167.256 146.322 168.676 145.977 170.447Z" fill="#FCFFE4"/>
<path d="M145.102 166C139.993 164.648 137.271 164.161 132.923 164.25C132.459 165.309 132.388 165.996 132.923 167.55C139.352 167.646 141.254 168.06 144.885 168.75C145.523 167.561 145.482 166.977 145.102 166Z" fill="#FCFFE4"/>
<path d="M117.669 171.895C119.646 172.055 120.68 172.054 122.264 171.733C122.349 171.311 122.321 171.052 122.002 170.513C119.642 170.904 118.913 170.877 117.53 170.863C117.391 171.345 117.453 171.559 117.669 171.895Z" fill="#FCFFE4"/>
<path d="M123.326 169.132C124.647 169.376 125.334 169.426 126.366 169.207C126.399 168.822 126.365 168.582 126.122 168.07C124.579 168.316 124.094 168.256 123.175 168.176C123.11 168.613 123.163 168.812 123.326 169.132Z" fill="#FCFFE4"/>
<path d="M142.113 170.482C141.306 170.182 140.768 170.258 139.775 170.482C139.775 170.482 139.184 172.316 139.395 172.032C139.606 171.747 141.182 171.995 141.135 172.229C141.135 172.229 142.276 182.129 144.614 181.829C144.614 181.829 143.089 178.634 142.629 175.182C142.168 171.729 142.113 170.482 142.113 170.482Z" fill="#8894AC"/>
<path d="M212.89 179.572L213.175 181.535C206.677 182.669 203.225 182.086 203.31 180.314L206.44 178.177C208.754 179.832 210.142 180.271 212.89 179.572Z" fill="#686565"/>
<path d="M214.834 169.324C218.438 168.757 218.297 175.474 214.834 176.215C211.371 176.957 207.103 176.957 203.261 180.533L204.163 172.813C208.136 170.805 211.23 169.891 214.834 169.324Z" fill="#E3E9E5"/>
<path d="M213.604 167.012C212.761 167.617 212.297 167.979 211.612 169.018C211.281 174.594 211.612 178.701 213.035 183.106C214.055 184.657 214.879 185.253 216.497 186.159C212.798 178.613 213.035 174.426 213.604 167.012Z" fill="#8894AC"/>
<path d="M245.852 166.396C250.106 171.613 251.74 174.88 253.488 181.225C252.204 187.459 248.862 188.586 240.588 188.509C244.551 183.048 245.006 177.044 245.852 166.396Z" fill="#8894AC"/>
<path d="M246.185 175.336C246.185 175.336 248.279 174.094 250.027 180.439C250.691 184.713 249.41 187.592 243.529 186.72C243.529 186.72 242.201 184.365 246.185 175.336Z" fill="#848587"/>
<path d="M248.51 165.573C251.567 167.19 254.344 170.109 254.202 170.85C254.06 171.592 253.301 172.246 253.301 172.246V179.66C253.301 179.66 255.245 182.103 251.309 186.508C248.7 186.29 248.273 178.003 248.273 178.003C248.273 178.003 248.961 176.888 248.842 176.52C248.737 176.696 249.023 176.652 248.842 176.52H246.803L244.716 184.807C244.716 184.807 244.194 187.773 241.111 188.427C238.029 189.081 229.648 188.969 223.61 189.081C220.363 188.397 218.527 188.052 215.879 185.941L212.891 177C211.587 171.008 212.411 169.688 213.603 166.968C219.534 165.447 222.872 164.995 228.827 164.308C236.513 163.759 240.823 163.623 248.51 165.573Z" fill="#A2B1D0"/>
<path d="M252.519 170.142C243.893 165.08 234.972 166.783 219.793 169.008C218.866 169.499 219.793 181.351 220.694 181.351C229.992 182.768 244.952 183.107 244.288 182.235C244.318 179.775 244.912 178.468 246.353 176.161C247.52 175.627 248.173 175.611 249.341 176.161C249.341 176.161 250.638 180.141 251.712 181.351C252.787 182.561 256.312 176.787 252.519 170.142Z" fill="#D1DBDC"/>
<path d="M220.761 170.209C219.788 170.902 220.061 172.33 220.541 172.901C221.022 173.473 221.529 172.972 222.503 172.279C223.477 171.586 223.868 169.504 223.387 168.932C222.906 168.361 221.735 169.516 220.761 170.209Z" fill="#FCFFE4"/>
<path d="M237.694 174.339C237.694 177.566 238.491 180.183 238.595 180.183C238.7 180.183 239.212 177.828 239.212 174.6C239.212 171.372 237.989 168.494 237.884 168.494C237.779 168.494 237.694 171.111 237.694 174.339Z" fill="#FCFFE4"/>
<path d="M228.785 181.49C232.275 181.834 235.147 181.749 235.153 181.701C235.158 181.653 232.639 181.168 229.149 180.824C225.659 180.48 222.482 180.733 222.476 180.78C222.471 180.828 225.295 181.146 228.785 181.49Z" fill="#FCFFE4"/>
<path d="M252.21 176.438C251.909 177.983 252.45 179.364 252.553 179.381C252.656 179.398 253.379 178.354 253.68 176.809C253.98 175.265 253.044 173.689 252.941 173.672C252.838 173.655 252.51 174.894 252.21 176.438Z" fill="#FCFFE4"/>
<path d="M251.444 172.56C246.987 171.381 244.612 170.956 240.82 171.034C240.415 171.957 240.353 172.557 240.82 173.912C246.428 173.996 248.087 174.358 251.254 174.959C251.811 173.923 251.775 173.413 251.444 172.56Z" fill="#FCFFE4"/>
<path d="M227.515 177.703C229.239 177.843 230.142 177.842 231.523 177.562C231.598 177.193 231.573 176.967 231.294 176.497C229.236 176.839 228.6 176.815 227.394 176.803C227.272 177.224 227.326 177.41 227.515 177.703Z" fill="#FCFFE4"/>
<path d="M232.45 175.292C233.602 175.505 234.201 175.548 235.102 175.357C235.13 175.021 235.101 174.812 234.889 174.366C233.542 174.58 233.119 174.528 232.318 174.458C232.261 174.839 232.308 175.013 232.45 175.292Z" fill="#FCFFE4"/>
<path d="M248.84 176.47C248.136 176.208 247.666 176.274 246.8 176.47C246.8 176.47 246.284 178.07 246.468 177.822C246.652 177.574 248.028 177.79 247.986 177.994C247.986 177.994 248.982 186.63 251.021 186.368C251.021 186.368 249.691 183.581 249.289 180.57C248.887 177.558 248.84 176.47 248.84 176.47Z" fill="#8894AC"/>
<path d="M306.009 188.583L306.263 190.331C300.478 191.34 297.405 190.821 297.48 189.243L300.267 187.341C302.327 188.814 303.563 189.205 306.009 188.583Z" fill="#686565"/>
<path d="M307.741 179.458C310.95 178.953 310.824 184.933 307.741 185.593C304.659 186.253 300.859 186.253 297.438 189.437L298.241 182.564C301.779 180.776 304.532 179.963 307.741 179.458Z" fill="#E3E9E5"/>
<path d="M306.644 177.401C305.894 177.941 305.48 178.262 304.871 179.187C304.576 184.151 304.871 187.807 306.137 191.729C307.045 193.11 307.779 193.641 309.22 194.447C305.926 187.73 306.137 184.002 306.644 177.401Z" fill="#8894AC"/>
<path d="M335.358 176.854C339.145 181.498 340.6 184.406 342.156 190.055C341.013 195.604 338.037 196.608 330.672 196.539C334.2 191.678 334.605 186.333 335.358 176.854Z" fill="#8894AC"/>
<path d="M335.65 184.811C335.65 184.811 337.513 183.705 339.07 189.354C339.661 193.159 338.521 195.721 333.285 194.945C333.285 194.945 332.103 192.848 335.65 184.811Z" fill="#848587"/>
<path d="M337.717 176.12C340.438 177.56 342.91 180.158 342.783 180.818C342.657 181.478 341.981 182.061 341.981 182.061V188.661C341.981 188.661 343.712 190.836 340.208 194.757C337.886 194.563 337.506 187.186 337.506 187.186C337.506 187.186 338.118 186.193 338.012 185.866C337.918 186.023 338.173 185.983 338.012 185.866H336.197L334.339 193.243C334.339 193.243 333.874 195.884 331.13 196.466C328.385 197.048 320.925 196.948 315.55 197.048C312.659 196.44 311.025 196.132 308.667 194.253L306.007 186.293C304.845 180.959 305.579 179.783 306.64 177.362C311.921 176.008 314.892 175.606 320.194 174.994C327.036 174.505 330.873 174.384 337.717 176.12Z" fill="#A2B1D0"/>
<path d="M341.286 180.186C333.607 175.68 325.665 177.196 312.152 179.177C311.327 179.614 312.152 190.165 312.954 190.165C321.232 191.427 334.55 191.729 333.959 190.952C333.986 188.762 334.514 187.599 335.797 185.545C336.836 185.07 337.417 185.055 338.457 185.545C338.457 185.545 339.612 189.088 340.568 190.165C341.525 191.242 344.663 186.103 341.286 180.186Z" fill="#D1DBDC"/>
<path d="M313.016 180.246C312.149 180.863 312.392 182.134 312.82 182.643C313.248 183.152 313.699 182.706 314.566 182.089C315.433 181.472 315.781 179.618 315.353 179.11C314.925 178.601 313.882 179.629 313.016 180.246Z" fill="#FCFFE4"/>
<path d="M328.096 183.923C328.096 186.797 328.805 189.126 328.898 189.126C328.992 189.126 329.447 187.03 329.447 184.156C329.447 181.283 328.358 178.72 328.265 178.72C328.172 178.72 328.096 181.05 328.096 183.923Z" fill="#FCFFE4"/>
<path d="M320.159 190.29C323.266 190.596 325.823 190.521 325.828 190.478C325.833 190.435 323.59 190.004 320.483 189.697C317.376 189.391 314.547 189.616 314.542 189.659C314.538 189.701 317.052 189.984 320.159 190.29Z" fill="#FCFFE4"/>
<path d="M341.013 185.793C340.745 187.168 341.226 188.398 341.318 188.413C341.41 188.428 342.053 187.498 342.321 186.123C342.589 184.748 341.755 183.345 341.663 183.33C341.572 183.315 341.28 184.417 341.013 185.793Z" fill="#FCFFE4"/>
<path d="M340.333 182.341C336.365 181.291 334.251 180.913 330.875 180.982C330.514 181.804 330.459 182.338 330.875 183.545C335.867 183.619 337.344 183.941 340.164 184.477C340.659 183.554 340.627 183.1 340.333 182.341Z" fill="#FCFFE4"/>
<path d="M319.029 186.918C320.564 187.043 321.368 187.042 322.598 186.793C322.664 186.465 322.642 186.264 322.394 185.845C320.562 186.149 319.996 186.128 318.922 186.117C318.814 186.492 318.861 186.657 319.029 186.918Z" fill="#FCFFE4"/>
<path d="M323.425 184.772C324.451 184.961 324.984 185 325.785 184.83C325.811 184.531 325.785 184.345 325.596 183.947C324.397 184.138 324.021 184.091 323.307 184.029C323.257 184.368 323.298 184.523 323.425 184.772Z" fill="#FCFFE4"/>
<path d="M338.014 185.821C337.387 185.588 336.969 185.647 336.198 185.821C336.198 185.821 335.739 187.246 335.903 187.025C336.066 186.804 337.291 186.996 337.254 187.178C337.254 187.178 338.14 194.866 339.956 194.633C339.956 194.633 338.772 192.152 338.414 189.471C338.056 186.79 338.014 185.821 338.014 185.821Z" fill="#8894AC"/>
<path d="M100.902 209.699L101.229 211.948C93.7799 213.248 89.8227 212.579 89.9197 210.549L93.508 208.099C96.1611 209.996 97.7516 210.499 100.902 209.699Z" fill="#686565"/>
<path d="M103.132 197.95C107.264 197.3 107.101 205 103.132 205.85C99.1625 206.7 94.2692 206.7 89.8653 210.8L90.8986 201.95C95.454 199.647 98.9999 198.6 103.132 197.95Z" fill="#E3E9E5"/>
<path d="M101.719 195.299C100.752 195.993 100.22 196.407 99.4351 197.599C99.0561 203.99 99.4351 208.698 101.066 213.748C102.235 215.526 103.18 216.21 105.035 217.248C100.794 208.598 101.066 203.799 101.719 195.299Z" fill="#8894AC"/>
<path d="M138.689 194.593C143.565 200.574 145.439 204.318 147.442 211.592C145.97 218.738 142.139 220.03 132.654 219.942C137.197 213.682 137.718 206.799 138.689 194.593Z" fill="#8894AC"/>
<path d="M139.067 204.842C139.067 204.842 141.467 203.418 143.471 210.692C144.233 215.592 142.765 218.892 136.023 217.892C136.023 217.892 134.501 215.192 139.067 204.842Z" fill="#848587"/>
<path d="M141.738 193.65C145.242 195.504 148.426 198.849 148.263 199.699C148.099 200.549 147.23 201.299 147.23 201.299V209.799C147.23 209.799 149.459 212.599 144.946 217.649C141.956 217.399 141.466 207.899 141.466 207.899C141.466 207.899 142.254 206.62 142.119 206.199C141.998 206.401 142.326 206.35 142.119 206.199H139.781L137.389 215.699C137.389 215.699 136.791 219.099 133.257 219.849C129.723 220.599 120.116 220.469 113.194 220.599C109.472 219.814 107.368 219.418 104.332 216.999L100.907 206.749C99.4109 199.88 100.356 198.367 101.722 195.249C108.522 193.505 112.348 192.988 119.175 192.2C127.986 191.571 132.926 191.414 141.738 193.65Z" fill="#A2B1D0"/>
<path d="M146.332 198.886C136.444 193.084 126.218 195.036 108.817 197.587C107.755 198.149 108.817 211.736 109.85 211.736C120.509 213.361 137.658 213.749 136.897 212.749C136.931 209.929 137.612 208.431 139.264 205.786C140.602 205.174 141.351 205.156 142.689 205.786C142.689 205.786 144.176 210.349 145.408 211.736C146.64 213.123 150.68 206.505 146.332 198.886Z" fill="#D1DBDC"/>
<path d="M109.926 198.962C108.81 199.757 109.123 201.394 109.674 202.049C110.225 202.704 110.806 202.129 111.923 201.335C113.039 200.541 113.487 198.154 112.936 197.499C112.385 196.844 111.042 198.168 109.926 198.962Z" fill="#FCFFE4"/>
<path d="M129.338 203.699C129.338 207.399 130.251 210.399 130.371 210.399C130.491 210.399 131.078 207.699 131.078 203.999C131.078 200.299 129.676 196.999 129.556 196.999C129.436 196.999 129.338 199.999 129.338 203.699Z" fill="#FCFFE4"/>
<path d="M119.126 211.898C123.127 212.292 126.419 212.195 126.425 212.14C126.431 212.085 123.544 211.529 119.543 211.135C115.542 210.74 111.9 211.03 111.894 211.085C111.887 211.14 115.125 211.504 119.126 211.898Z" fill="#FCFFE4"/>
<path d="M145.977 206.106C145.633 207.877 146.252 209.46 146.37 209.479C146.488 209.499 147.317 208.302 147.662 206.531C148.006 204.76 146.933 202.954 146.815 202.935C146.697 202.915 146.322 204.335 145.977 206.106Z" fill="#FCFFE4"/>
<path d="M145.102 201.659C139.993 200.308 137.271 199.821 132.923 199.91C132.459 200.968 132.388 201.655 132.923 203.209C139.352 203.305 141.254 203.72 144.885 204.409C145.523 203.221 145.482 202.637 145.102 201.659Z" fill="#FCFFE4"/>
<path d="M117.669 207.555C119.646 207.715 120.68 207.715 122.264 207.393C122.349 206.971 122.321 206.712 122.002 206.173C119.642 206.564 118.913 206.537 117.53 206.524C117.391 207.005 117.453 207.219 117.669 207.555Z" fill="#FCFFE4"/>
<path d="M123.326 204.793C124.647 205.036 125.334 205.086 126.366 204.867C126.399 204.482 126.365 204.242 126.122 203.73C124.579 203.976 124.094 203.916 123.175 203.836C123.11 204.273 123.163 204.472 123.326 204.793Z" fill="#FCFFE4"/>
<path d="M142.113 206.141C141.306 205.841 140.768 205.917 139.775 206.141C139.775 206.141 139.184 207.976 139.395 207.691C139.606 207.407 141.182 207.654 141.135 207.889C141.135 207.889 142.276 217.789 144.614 217.489C144.614 217.489 143.089 214.294 142.629 210.841C142.168 207.389 142.113 206.141 142.113 206.141Z" fill="#8894AC"/>
<path d="M212.89 210.679L213.175 212.642C206.677 213.776 203.225 213.192 203.31 211.42L206.44 209.283C208.754 210.938 210.142 211.377 212.89 210.679Z" fill="#686565"/>
<path d="M214.832 200.429C218.436 199.862 218.295 206.579 214.832 207.321C211.37 208.062 207.101 208.062 203.259 211.639L204.161 203.919C208.134 201.91 211.228 200.996 214.832 200.429Z" fill="#E3E9E5"/>
<path d="M213.603 198.118C212.76 198.724 212.296 199.085 211.611 200.124C211.28 205.7 211.611 209.807 213.034 214.212C214.054 215.763 214.878 216.36 216.496 217.265C212.797 209.72 213.034 205.533 213.603 198.118Z" fill="#8894AC"/>
<path d="M245.852 197.502C250.106 202.72 251.74 205.986 253.488 212.332C252.204 218.565 248.862 219.692 240.588 219.615C244.551 214.154 245.006 208.151 245.852 197.502Z" fill="#8894AC"/>
<path d="M246.184 206.443C246.184 206.443 248.278 205.2 250.026 211.546C250.69 215.82 249.409 218.699 243.528 217.826C243.528 217.826 242.2 215.471 246.184 206.443Z" fill="#848587"/>
<path d="M248.509 196.679C251.566 198.297 254.343 201.215 254.201 201.957C254.059 202.698 253.3 203.352 253.3 203.352V210.767C253.3 210.767 255.244 213.209 251.308 217.614C248.699 217.396 248.272 209.109 248.272 209.109C248.272 209.109 248.96 207.994 248.841 207.627C248.736 207.803 249.022 207.758 248.841 207.627H246.802L244.715 215.913C244.715 215.913 244.193 218.879 241.11 219.534C238.028 220.188 229.647 220.075 223.609 220.188C220.362 219.504 218.526 219.158 215.878 217.047L212.89 208.106C211.586 202.114 212.41 200.794 213.602 198.075C219.533 196.553 222.871 196.102 228.826 195.414C236.512 194.865 240.822 194.729 248.509 196.679Z" fill="#A2B1D0"/>
<path d="M252.518 201.248C243.892 196.187 234.971 197.89 219.792 200.114C218.865 200.605 219.792 212.457 220.693 212.457C229.991 213.875 244.951 214.213 244.287 213.341C244.317 210.881 244.911 209.574 246.352 207.267C247.519 206.733 248.172 206.717 249.34 207.267C249.34 207.267 250.637 211.248 251.711 212.457C252.786 213.667 256.311 207.894 252.518 201.248Z" fill="#D1DBDC"/>
<path d="M220.76 201.316C219.787 202.008 220.06 203.436 220.54 204.008C221.021 204.579 221.528 204.078 222.502 203.385C223.476 202.692 223.867 200.61 223.386 200.039C222.905 199.467 221.734 200.623 220.76 201.316Z" fill="#FCFFE4"/>
<path d="M237.693 205.445C237.693 208.672 238.49 211.289 238.594 211.289C238.699 211.289 239.211 208.934 239.211 205.706C239.211 202.478 237.988 199.6 237.883 199.6C237.778 199.6 237.693 202.217 237.693 205.445Z" fill="#FCFFE4"/>
<path d="M228.784 212.596C232.274 212.94 235.146 212.855 235.152 212.807C235.157 212.759 232.638 212.274 229.148 211.93C225.658 211.586 222.481 211.839 222.475 211.887C222.47 211.935 225.294 212.252 228.784 212.596Z" fill="#FCFFE4"/>
<path d="M252.209 207.544C251.908 209.089 252.449 210.47 252.552 210.487C252.655 210.504 253.378 209.46 253.679 207.915C253.979 206.371 253.043 204.795 252.94 204.778C252.837 204.761 252.509 206 252.209 207.544Z" fill="#FCFFE4"/>
<path d="M251.445 203.666C246.988 202.487 244.613 202.062 240.821 202.14C240.416 203.063 240.354 203.663 240.821 205.018C246.429 205.102 248.088 205.464 251.255 206.065C251.812 205.028 251.776 204.519 251.445 203.666Z" fill="#FCFFE4"/>
<path d="M227.514 208.809C229.238 208.949 230.141 208.948 231.522 208.668C231.597 208.299 231.572 208.073 231.293 207.603C229.235 207.945 228.599 207.921 227.393 207.909C227.272 208.329 227.325 208.515 227.514 208.809Z" fill="#FCFFE4"/>
<path d="M232.449 206.399C233.601 206.611 234.2 206.655 235.101 206.464C235.129 206.128 235.1 205.919 234.888 205.472C233.541 205.687 233.118 205.634 232.317 205.564C232.26 205.946 232.307 206.119 232.449 206.399Z" fill="#FCFFE4"/>
<path d="M248.84 207.576C248.136 207.314 247.666 207.381 246.8 207.576C246.8 207.576 246.284 209.176 246.468 208.928C246.652 208.68 248.028 208.896 247.986 209.101C247.986 209.101 248.982 217.736 251.021 217.475C251.021 217.475 249.691 214.688 249.289 211.676C248.887 208.664 248.84 207.576 248.84 207.576Z" fill="#8894AC"/>
<path d="M306.009 216.277L306.263 218.024C300.478 219.033 297.405 218.514 297.48 216.937L300.267 215.034C302.327 216.508 303.563 216.899 306.009 216.277Z" fill="#686565"/>
<path d="M307.741 207.152C310.95 206.647 310.824 212.627 307.741 213.287C304.659 213.947 300.859 213.947 297.438 217.131L298.241 210.258C301.779 208.47 304.532 207.657 307.741 207.152Z" fill="#E3E9E5"/>
<path d="M306.644 205.095C305.894 205.634 305.48 205.956 304.871 206.881C304.576 211.845 304.871 215.501 306.137 219.422C307.045 220.803 307.779 221.334 309.22 222.14C305.926 215.423 306.137 211.696 306.644 205.095Z" fill="#8894AC"/>
<path d="M335.358 204.547C339.145 209.191 340.6 212.099 342.156 217.749C341.013 223.298 338.037 224.301 330.672 224.233C334.2 219.371 334.605 214.026 335.358 204.547Z" fill="#8894AC"/>
<path d="M335.65 212.505C335.65 212.505 337.513 211.398 339.07 217.047C339.661 220.853 338.521 223.415 333.285 222.639C333.285 222.639 332.103 220.542 335.65 212.505Z" fill="#848587"/>
<path d="M337.717 203.813C340.438 205.254 342.91 207.851 342.783 208.511C342.657 209.172 341.981 209.754 341.981 209.754V216.355C341.981 216.355 343.712 218.529 340.208 222.451C337.886 222.257 337.506 214.879 337.506 214.879C337.506 214.879 338.118 213.886 338.012 213.559C337.918 213.716 338.173 213.676 338.012 213.559H336.197L334.339 220.937C334.339 220.937 333.874 223.577 331.13 224.159C328.385 224.742 320.925 224.641 315.55 224.742C312.659 224.133 311.025 223.825 308.667 221.946L306.007 213.986C304.845 208.652 305.579 207.477 306.64 205.056C311.921 203.701 314.892 203.299 320.194 202.687C327.036 202.199 330.873 202.077 337.717 203.813Z" fill="#A2B1D0"/>
<path d="M341.286 207.88C333.607 203.374 325.665 204.89 312.152 206.87C311.327 207.307 312.152 217.859 312.954 217.859C321.232 219.121 334.55 219.422 333.959 218.645C333.986 216.455 334.514 215.292 335.797 213.238C336.836 212.763 337.417 212.748 338.457 213.238C338.457 213.238 339.612 216.782 340.568 217.859C341.525 218.936 344.663 213.796 341.286 207.88Z" fill="#D1DBDC"/>
<path d="M313.016 207.94C312.149 208.556 312.392 209.828 312.82 210.337C313.248 210.845 313.699 210.399 314.566 209.782C315.433 209.165 315.781 207.312 315.353 206.803C314.925 206.294 313.882 207.323 313.016 207.94Z" fill="#FCFFE4"/>
<path d="M328.096 211.617C328.096 214.491 328.805 216.82 328.898 216.82C328.992 216.82 329.447 214.724 329.447 211.85C329.447 208.976 328.358 206.414 328.265 206.414C328.172 206.414 328.096 208.744 328.096 211.617Z" fill="#FCFFE4"/>
<path d="M320.159 217.984C323.266 218.29 325.823 218.214 325.828 218.172C325.833 218.129 323.59 217.697 320.483 217.391C317.376 217.085 314.547 217.31 314.542 217.353C314.538 217.395 317.052 217.678 320.159 217.984Z" fill="#FCFFE4"/>
<path d="M341.013 213.487C340.745 214.862 341.226 216.092 341.318 216.107C341.41 216.122 342.053 215.193 342.321 213.817C342.589 212.442 341.755 211.039 341.663 211.024C341.572 211.009 341.28 212.112 341.013 213.487Z" fill="#FCFFE4"/>
<path d="M340.333 210.034C336.365 208.985 334.251 208.606 330.875 208.675C330.514 209.498 330.459 210.031 330.875 211.238C335.867 211.313 337.344 211.635 340.164 212.17C340.659 211.247 340.627 210.793 340.333 210.034Z" fill="#FCFFE4"/>
<path d="M319.029 214.611C320.564 214.736 321.368 214.735 322.598 214.485C322.664 214.157 322.642 213.956 322.394 213.538C320.562 213.842 319.996 213.821 318.922 213.81C318.814 214.184 318.861 214.35 319.029 214.611Z" fill="#FCFFE4"/>
<path d="M323.425 212.465C324.451 212.655 324.984 212.693 325.785 212.523C325.811 212.224 325.785 212.038 325.596 211.64C324.397 211.831 324.021 211.784 323.307 211.722C323.257 212.062 323.298 212.217 323.425 212.465Z" fill="#FCFFE4"/>
<path d="M338.014 213.515C337.387 213.282 336.969 213.341 336.198 213.515C336.198 213.515 335.739 214.939 335.903 214.718C336.066 214.497 337.291 214.69 337.254 214.872C337.254 214.872 338.14 222.56 339.956 222.327C339.956 222.327 338.772 219.846 338.414 217.165C338.056 214.484 338.014 213.515 338.014 213.515Z" fill="#8894AC"/>
<path d="M100.902 245.356L101.229 247.606C93.7799 248.906 89.8227 248.237 89.9197 246.206L93.508 243.756C96.1611 245.654 97.7516 246.157 100.902 245.356Z" fill="#686565"/>
<path d="M103.132 233.606C107.264 232.956 107.101 240.656 103.132 241.506C99.1625 242.356 94.2692 242.356 89.8653 246.456L90.8986 237.606C95.454 235.304 98.9999 234.256 103.132 233.606Z" fill="#E3E9E5"/>
<path d="M101.719 230.956C100.752 231.65 100.22 232.064 99.4351 233.255C99.0561 239.647 99.4351 244.355 101.066 249.405C102.235 251.183 103.18 251.867 105.035 252.905C100.794 244.255 101.066 239.455 101.719 230.956Z" fill="#8894AC"/>
<path d="M138.689 230.25C143.565 236.231 145.439 239.975 147.442 247.249C145.97 254.395 142.139 255.687 132.654 255.599C137.197 249.339 137.718 242.457 138.689 230.25Z" fill="#8894AC"/>
<path d="M139.067 240.5C139.067 240.5 141.467 239.076 143.471 246.35C144.233 251.25 142.765 254.549 136.023 253.55C136.023 253.55 134.501 250.85 139.067 240.5Z" fill="#848587"/>
<path d="M141.738 229.308C145.242 231.162 148.426 234.507 148.263 235.358C148.099 236.208 147.23 236.957 147.23 236.957V245.457C147.23 245.457 149.459 248.257 144.946 253.307C141.956 253.057 141.466 243.557 141.466 243.557C141.466 243.557 142.254 242.279 142.119 241.857C141.998 242.059 142.326 242.008 142.119 241.857H139.781L137.389 251.357C137.389 251.357 136.791 254.757 133.257 255.507C129.723 256.257 120.116 256.127 113.194 256.257C109.472 255.473 107.368 255.076 104.332 252.657L100.907 242.407C99.4109 235.538 100.356 234.025 101.722 230.908C108.522 229.163 112.348 228.646 119.175 227.858C127.986 227.229 132.926 227.072 141.738 229.308Z" fill="#A2B1D0"/>
<path d="M146.332 234.543C136.444 228.741 126.218 230.693 108.817 233.243C107.755 233.806 108.817 247.393 109.85 247.393C120.509 249.018 137.658 249.406 136.897 248.406C136.931 245.586 137.612 244.088 139.264 241.443C140.602 240.831 141.351 240.812 142.689 241.443C142.689 241.443 144.176 246.006 145.408 247.393C146.64 248.78 150.68 242.161 146.332 234.543Z" fill="#D1DBDC"/>
<path d="M109.926 234.62C108.81 235.414 109.123 237.051 109.674 237.707C110.225 238.362 110.806 237.787 111.923 236.993C113.039 236.198 113.487 233.812 112.936 233.157C112.385 232.501 111.042 233.826 109.926 234.62Z" fill="#FCFFE4"/>
<path d="M129.338 239.356C129.338 243.056 130.251 246.055 130.371 246.055C130.491 246.055 131.078 243.356 131.078 239.655C131.078 235.955 129.676 232.656 129.556 232.656C129.436 232.656 129.338 235.655 129.338 239.356Z" fill="#FCFFE4"/>
<path d="M119.126 247.555C123.127 247.949 126.419 247.851 126.425 247.796C126.431 247.741 123.544 247.186 119.543 246.791C115.542 246.397 111.9 246.686 111.894 246.741C111.887 246.796 115.125 247.16 119.126 247.555Z" fill="#FCFFE4"/>
<path d="M145.977 241.763C145.633 243.534 146.252 245.118 146.37 245.137C146.488 245.157 147.317 243.96 147.662 242.189C148.006 240.418 146.933 238.612 146.815 238.592C146.697 238.573 146.322 239.993 145.977 241.763Z" fill="#FCFFE4"/>
<path d="M145.102 237.318C139.993 235.966 137.271 235.479 132.923 235.568C132.459 236.626 132.388 237.313 132.923 238.868C139.352 238.964 141.254 239.378 144.885 240.068C145.523 238.879 145.482 238.295 145.102 237.318Z" fill="#FCFFE4"/>
<path d="M117.669 243.213C119.646 243.373 120.68 243.372 122.264 243.051C122.349 242.628 122.321 242.37 122.002 241.831C119.642 242.222 118.913 242.195 117.53 242.181C117.391 242.663 117.453 242.876 117.669 243.213Z" fill="#FCFFE4"/>
<path d="M123.326 240.45C124.647 240.694 125.334 240.744 126.366 240.524C126.399 240.14 126.365 239.9 126.122 239.388C124.579 239.634 124.094 239.574 123.175 239.494C123.11 239.931 123.163 240.13 123.326 240.45Z" fill="#FCFFE4"/>
<path d="M142.113 241.798C141.306 241.498 140.768 241.574 139.775 241.798C139.775 241.798 139.184 243.633 139.395 243.348C139.606 243.064 141.182 243.311 141.135 243.546C141.135 243.546 142.276 253.445 144.614 253.145C144.614 253.145 143.089 249.95 142.629 246.498C142.168 243.046 142.113 241.798 142.113 241.798Z" fill="#8894AC"/>
<path d="M212.89 241.786L213.175 243.749C206.677 244.883 203.225 244.299 203.31 242.527L206.44 240.39C208.754 242.045 210.142 242.484 212.89 241.786Z" fill="#686565"/>
<path d="M214.832 231.536C218.436 230.969 218.295 237.686 214.832 238.428C211.37 239.169 207.101 239.169 203.259 242.746L204.161 235.026C208.134 233.017 211.228 232.103 214.832 231.536Z" fill="#E3E9E5"/>
<path d="M213.603 229.225C212.76 229.831 212.296 230.192 211.611 231.231C211.28 236.807 211.611 240.914 213.034 245.319C214.054 246.87 214.878 247.467 216.496 248.372C212.797 240.827 213.034 236.64 213.603 229.225Z" fill="#8894AC"/>
<path d="M245.852 228.609C250.106 233.827 251.74 237.093 253.488 243.439C252.204 249.672 248.862 250.799 240.588 250.722C244.551 245.261 245.006 239.258 245.852 228.609Z" fill="#8894AC"/>
<path d="M246.184 237.55C246.184 237.55 248.278 236.307 250.026 242.653C250.69 246.927 249.409 249.805 243.528 248.933C243.528 248.933 242.2 246.578 246.184 237.55Z" fill="#848587"/>
<path d="M248.509 227.786C251.566 229.404 254.343 232.322 254.201 233.063C254.059 233.805 253.3 234.459 253.3 234.459V241.874C253.3 241.874 255.244 244.316 251.308 248.721C248.699 248.503 248.272 240.216 248.272 240.216C248.272 240.216 248.96 239.101 248.841 238.733C248.736 238.91 249.022 238.865 248.841 238.733H246.802L244.715 247.02C244.715 247.02 244.193 249.986 241.11 250.64C238.028 251.295 229.647 251.182 223.609 251.295C220.362 250.611 218.526 250.265 215.878 248.154L212.89 239.213C211.586 233.221 212.41 231.901 213.602 229.182C219.533 227.66 222.871 227.209 228.826 226.521C236.512 225.972 240.822 225.836 248.509 227.786Z" fill="#A2B1D0"/>
<path d="M252.518 232.354C243.892 227.293 234.971 228.996 219.792 231.22C218.865 231.711 219.792 243.563 220.693 243.563C229.991 244.981 244.951 245.319 244.287 244.447C244.317 241.987 244.911 240.68 246.352 238.373C247.519 237.839 248.172 237.823 249.34 238.373C249.34 238.373 250.637 242.353 251.711 243.563C252.786 244.773 256.311 239 252.518 232.354Z" fill="#D1DBDC"/>
<path d="M220.76 232.422C219.787 233.114 220.06 234.542 220.54 235.114C221.021 235.685 221.528 235.184 222.502 234.491C223.476 233.798 223.867 231.716 223.386 231.145C222.905 230.573 221.734 231.729 220.76 232.422Z" fill="#FCFFE4"/>
<path d="M237.693 236.551C237.693 239.779 238.49 242.396 238.594 242.396C238.699 242.396 239.211 240.041 239.211 236.813C239.211 233.585 237.988 230.707 237.883 230.707C237.778 230.707 237.693 233.324 237.693 236.551Z" fill="#FCFFE4"/>
<path d="M228.784 243.704C232.274 244.048 235.146 243.963 235.152 243.915C235.157 243.867 232.638 243.382 229.148 243.038C225.658 242.694 222.481 242.946 222.475 242.994C222.47 243.042 225.294 243.36 228.784 243.704Z" fill="#FCFFE4"/>
<path d="M252.209 238.651C251.908 240.196 252.449 241.577 252.552 241.594C252.655 241.611 253.378 240.567 253.679 239.022C253.979 237.478 253.043 235.902 252.94 235.885C252.837 235.868 252.509 237.107 252.209 238.651Z" fill="#FCFFE4"/>
<path d="M251.445 234.773C246.988 233.594 244.613 233.169 240.821 233.246C240.416 234.17 240.354 234.769 240.821 236.125C246.429 236.209 248.088 236.57 251.255 237.172C251.812 236.135 251.776 235.625 251.445 234.773Z" fill="#FCFFE4"/>
<path d="M227.514 239.916C229.238 240.056 230.141 240.055 231.522 239.775C231.597 239.406 231.572 239.18 231.293 238.71C229.235 239.052 228.599 239.028 227.393 239.016C227.272 239.436 227.325 239.622 227.514 239.916Z" fill="#FCFFE4"/>
<path d="M232.449 237.506C233.601 237.718 234.2 237.762 235.101 237.57C235.129 237.235 235.1 237.026 234.888 236.579C233.541 236.794 233.118 236.741 232.317 236.671C232.26 237.052 232.307 237.226 232.449 237.506Z" fill="#FCFFE4"/>
<path d="M248.84 238.682C248.136 238.42 247.666 238.487 246.8 238.682C246.8 238.682 246.284 240.282 246.468 240.034C246.652 239.786 248.028 240.002 247.986 240.207C247.986 240.207 248.982 248.842 251.021 248.581C251.021 248.581 249.691 245.794 249.289 242.782C248.887 239.77 248.84 238.682 248.84 238.682Z" fill="#8894AC"/>
<path d="M306.009 243.968L306.263 245.715C300.478 246.724 297.405 246.205 297.48 244.628L300.267 242.725C302.327 244.199 303.563 244.59 306.009 243.968Z" fill="#686565"/>
<path d="M307.741 234.842C310.95 234.337 310.824 240.317 307.741 240.977C304.659 241.637 300.859 241.637 297.438 244.821L298.241 237.948C301.779 236.16 304.532 235.347 307.741 234.842Z" fill="#E3E9E5"/>
<path d="M306.644 232.786C305.894 233.325 305.48 233.647 304.871 234.572C304.576 239.536 304.871 243.192 306.137 247.113C307.045 248.494 307.779 249.025 309.22 249.831C305.926 243.114 306.137 239.386 306.644 232.786Z" fill="#8894AC"/>
<path d="M335.358 232.237C339.145 236.881 340.6 239.789 342.156 245.438C341.013 250.988 338.037 251.991 330.672 251.923C334.2 247.061 334.605 241.716 335.358 232.237Z" fill="#8894AC"/>
<path d="M335.65 240.195C335.65 240.195 337.513 239.089 339.07 244.738C339.661 248.543 338.521 251.106 333.285 250.329C333.285 250.329 332.103 248.232 335.65 240.195Z" fill="#848587"/>
<path d="M337.717 231.504C340.438 232.944 342.91 235.542 342.783 236.202C342.657 236.863 341.981 237.445 341.981 237.445V244.046C341.981 244.046 343.712 246.22 340.208 250.142C337.886 249.948 337.506 242.57 337.506 242.57C337.506 242.57 338.118 241.577 338.012 241.25C337.918 241.407 338.173 241.367 338.012 241.25H336.197L334.339 248.627C334.339 248.627 333.874 251.268 331.13 251.85C328.385 252.433 320.925 252.332 315.55 252.433C312.659 251.824 311.025 251.516 308.667 249.637L306.007 241.677C304.845 236.343 305.579 235.168 306.64 232.747C311.921 231.392 314.892 230.99 320.194 230.378C327.036 229.89 330.873 229.768 337.717 231.504Z" fill="#A2B1D0"/>
<path d="M341.286 235.571C333.607 231.065 325.665 232.581 312.152 234.561C311.327 234.998 312.152 245.55 312.954 245.55C321.232 246.812 334.55 247.113 333.959 246.336C333.986 244.146 334.514 242.983 335.797 240.929C336.836 240.454 337.417 240.439 338.457 240.929C338.457 240.929 339.612 244.473 340.568 245.55C341.525 246.627 344.663 241.487 341.286 235.571Z" fill="#D1DBDC"/>
<path d="M313.016 235.631C312.149 236.247 312.392 237.519 312.82 238.027C313.248 238.536 313.699 238.09 314.566 237.473C315.433 236.856 315.781 235.003 315.353 234.494C314.925 233.985 313.882 235.014 313.016 235.631Z" fill="#FCFFE4"/>
<path d="M328.096 239.307C328.096 242.181 328.805 244.51 328.898 244.51C328.992 244.51 329.447 242.414 329.447 239.54C329.447 236.667 328.358 234.104 328.265 234.104C328.172 234.104 328.096 236.434 328.096 239.307Z" fill="#FCFFE4"/>
<path d="M320.159 245.675C323.266 245.981 325.823 245.905 325.828 245.862C325.833 245.82 323.59 245.388 320.483 245.082C317.376 244.775 314.547 245 314.542 245.043C314.538 245.086 317.052 245.368 320.159 245.675Z" fill="#FCFFE4"/>
<path d="M341.013 241.177C340.745 242.552 341.226 243.782 341.318 243.797C341.41 243.812 342.053 242.883 342.321 241.507C342.589 240.132 341.755 238.729 341.663 238.714C341.572 238.699 341.28 239.802 341.013 241.177Z" fill="#FCFFE4"/>
<path d="M340.333 237.725C336.365 236.676 334.251 236.297 330.875 236.366C330.514 237.188 330.459 237.722 330.875 238.929C335.867 239.004 337.344 239.326 340.164 239.861C340.659 238.938 340.627 238.484 340.333 237.725Z" fill="#FCFFE4"/>
<path d="M319.029 242.302C320.564 242.427 321.368 242.426 322.598 242.176C322.664 241.848 322.642 241.647 322.394 241.229C320.562 241.533 319.996 241.512 318.922 241.501C318.814 241.875 318.861 242.041 319.029 242.302Z" fill="#FCFFE4"/>
<path d="M323.425 240.156C324.451 240.345 324.984 240.384 325.785 240.214C325.811 239.915 325.785 239.729 325.596 239.331C324.397 239.522 324.021 239.475 323.307 239.413C323.257 239.753 323.298 239.908 323.425 240.156Z" fill="#FCFFE4"/>
<path d="M338.014 241.206C337.387 240.973 336.969 241.032 336.198 241.206C336.198 241.206 335.739 242.63 335.903 242.409C336.066 242.188 337.291 242.381 337.254 242.563C337.254 242.563 338.14 250.251 339.956 250.018C339.956 250.018 338.772 247.537 338.414 244.856C338.056 242.174 338.014 241.206 338.014 241.206Z" fill="#8894AC"/>
<path opacity="0.6" d="M0 430.938L618.869 341.867V588.485H0V430.938Z" fill="url(#paint3_linear_84_1065)"/>
<rect x="539.19" width="275.586" height="589" fill="#C2B5E3"/>
<path d="M565.551 0H763.254V589H619.47L565.551 567.6V0Z" fill="url(#paint4_linear_84_1065)"/>
<path d="M617.673 589L564.354 566.861L653.619 545.752L763.854 589H617.673Z" fill="#BBABE3"/>
<rect x="657.812" width="13.1802" height="573.554" fill="#CE93E9"/>
<defs>
<linearGradient id="paint0_linear_84_1065" x1="40.1397" y1="547.811" x2="648.113" y2="233.61" gradientUnits="userSpaceOnUse">
<stop offset="0.118758" stop-color="#8779F0"/>
<stop offset="1" stop-color="#4E458A"/>
</linearGradient>
<linearGradient id="paint1_linear_84_1065" x1="49.6096" y1="283.606" x2="869.7" y2="215.934" gradientUnits="userSpaceOnUse">
<stop stop-color="#CE93E9"/>
<stop offset="1" stop-color="#40407B"/>
</linearGradient>
<linearGradient id="paint2_linear_84_1065" x1="48.9016" y1="282.929" x2="877.189" y2="213.72" gradientUnits="userSpaceOnUse">
<stop stop-color="#CE93E9"/>
<stop offset="1" stop-color="#7373E0"/>
</linearGradient>
<linearGradient id="paint3_linear_84_1065" x1="40.7388" y1="349.075" x2="648.712" y2="34.8739" gradientUnits="userSpaceOnUse">
<stop offset="0.118758" stop-color="#8779F0"/>
<stop offset="1" stop-color="#4E458A"/>
</linearGradient>
<linearGradient id="paint4_linear_84_1065" x1="565.551" y1="272.081" x2="763.259" y2="271.059" gradientUnits="userSpaceOnUse">
<stop stop-color="#B5A4E1"/>
<stop offset="0.451706" stop-color="white"/>
<stop offset="1" stop-color="#B5A4E1"/>
</linearGradient>
</defs>
</svg>
