<svg width="123" height="537" viewBox="0 0 123 537" fill="none" xmlns="http://www.w3.org/2000/svg">
<path d="M100.291 39.1371L99.6357 44.0546C114.607 46.8959 122.561 45.4337 122.366 40.9948L115.153 35.6401C109.821 39.7874 106.624 40.8874 100.291 39.1371Z" fill="#686565"/>
<path d="M95.8107 13.4566C87.506 12.036 87.8327 28.8649 95.8107 30.7227C103.789 32.5805 113.624 32.5805 122.475 41.5414L120.398 22.1989C111.242 17.1665 104.115 14.8772 95.8107 13.4566Z" fill="#ECC2FF"/>
<path d="M98.6514 7.66455C100.593 9.18199 101.664 10.0876 103.241 12.6914C104.003 26.6616 103.241 36.9513 99.9627 47.9885C97.6131 51.875 95.7133 53.3688 91.9854 55.638C100.509 36.7328 99.9627 26.242 98.6514 7.66455Z" fill="#BB85FF"/>
<path d="M24.341 6.12012C14.5407 19.192 10.7746 27.3763 6.74707 43.275C9.70555 58.8931 17.4071 61.717 36.471 61.5246C27.3386 47.8421 26.2917 32.7995 24.341 6.12012Z" fill="#BB85FF"/>
<path d="M23.5758 28.5224C23.5758 28.5224 18.7518 25.4093 14.7243 41.3079C13.1939 52.0173 16.1445 59.2297 29.6954 57.0443C29.6954 57.0443 32.7549 51.1431 23.5758 28.5224Z" fill="#848587"/>
<path d="M18.2222 4.05889C11.1794 8.11249 4.78092 15.4238 5.10875 17.2817C5.43659 19.1395 7.18506 20.7786 7.18506 20.7786V39.356C7.18506 39.356 2.70449 45.4755 11.7747 56.5127C17.785 55.9663 18.7685 35.2033 18.7685 35.2033C18.7685 35.2033 17.1847 32.4086 17.4572 31.4879C17.7006 31.9297 17.0408 31.8176 17.4572 31.4879H22.1563L26.9646 52.251C26.9646 52.251 28.1666 59.6819 35.2698 61.3211C42.3729 62.9603 61.682 62.6778 75.5937 62.9603C83.0747 61.2467 87.3049 60.3801 93.4062 55.0922L100.291 32.69C103.297 17.6769 101.398 14.3697 98.6516 7.55582C84.9848 3.74311 77.2952 2.61262 63.573 0.8898C45.8639 -0.485058 35.9352 -0.827122 18.2222 4.05889Z" fill="#CE93E9"/>
<path d="M8.98513 15.5049C28.8602 2.82295 49.4139 7.0898 84.3877 12.6636C86.523 13.894 84.3877 43.5896 82.3114 43.5896C60.8887 47.1412 26.4195 47.9891 27.9494 45.8035C27.8801 39.6402 26.5112 36.3663 23.1914 30.5854C20.5028 29.2478 18.9978 29.2071 16.3068 30.5854C16.3068 30.5854 13.3191 40.5581 10.8429 43.5896C8.36661 46.6211 0.245544 32.1554 8.98513 15.5049Z" fill="#D1DBDC"/>
<path d="M82.155 15.6718C84.3983 17.4078 83.7699 20.9857 82.6618 22.4176C81.5537 23.8495 80.3855 22.5932 78.1422 20.8572C75.8988 19.1212 74.9973 13.9048 76.1054 12.4729C77.2135 11.041 79.9117 13.9358 82.155 15.6718Z" fill="#FCFFE4"/>
<path d="M43.1385 26.0228C43.1385 34.1101 41.3036 40.6662 41.0622 40.6662C40.8208 40.6662 39.6416 34.7658 39.6416 26.6785C39.6416 18.5911 42.46 11.3794 42.7014 11.3794C42.9428 11.3794 43.1385 17.9355 43.1385 26.0228Z" fill="#FCFFE4"/>
<path d="M63.6654 43.941C55.6241 44.8027 49.0076 44.5891 48.9947 44.4691C48.9818 44.3491 54.7858 43.1341 62.8271 42.2723C70.8684 41.4106 78.1892 42.0433 78.2021 42.1633C78.2149 42.2833 71.7066 43.0792 63.6654 43.941Z" fill="#FCFFE4"/>
<path d="M9.69609 31.2837C10.3886 35.1542 9.14371 38.6149 8.90607 38.6574C8.66843 38.6999 7.00243 36.0838 6.30997 32.2134C5.6175 28.343 7.77435 24.3952 8.01199 24.3527C8.24963 24.3102 9.00363 27.4133 9.69609 31.2837Z" fill="#FCFFE4"/>
<path d="M11.4556 21.5651C21.7253 18.6113 27.196 17.5466 35.9341 17.7404C36.8668 20.0543 37.011 21.5558 35.9341 24.9528C23.0125 25.1627 19.1905 26.069 11.8927 27.5755C10.6099 24.9783 10.6931 23.7016 11.4556 21.5651Z" fill="#FCFFE4"/>
<path d="M66.5947 34.4505C62.6218 34.801 60.5426 34.7995 57.3599 34.0967C57.1876 33.1736 57.2444 32.6079 57.8865 31.4296C62.6292 32.2853 64.0937 32.2263 66.8736 32.1964C67.1533 33.2494 67.0297 33.7155 66.5947 34.4505Z" fill="#FCFFE4"/>
<path d="M55.2219 28.4098C52.5668 28.9425 51.1871 29.051 49.1121 28.572C49.0465 27.7311 49.1141 27.2071 49.6025 26.0881C52.7047 26.6255 53.6797 26.4937 55.5261 26.3192C55.6561 27.2742 55.5494 27.7099 55.2219 28.4098Z" fill="#FCFFE4"/>
<path d="M17.4575 31.3625C19.0797 30.7068 20.1616 30.8726 22.1565 31.3625C22.1565 31.3625 23.3454 35.3722 22.9215 34.7501C22.4975 34.1281 19.3285 34.6693 19.4245 35.182C19.4245 35.182 17.1296 56.8191 12.4307 56.1636C12.4307 56.1636 15.4954 49.1805 16.4218 41.6348C17.3482 34.0891 17.4575 31.3625 17.4575 31.3625Z" fill="#BB85FF"/>
<path d="M99.2914 195.137L98.6357 200.055C113.607 202.896 121.561 201.434 121.366 196.995L114.153 191.64C108.821 195.787 105.624 196.887 99.2914 195.137Z" fill="#686565"/>
<path d="M94.8107 169.457C86.506 168.036 86.8327 184.865 94.8107 186.723C102.789 188.58 112.624 188.58 121.475 197.541L119.398 178.199C110.242 173.167 103.115 170.877 94.8107 169.457Z" fill="#F2D1A0"/>
<path d="M97.6514 163.665C99.5933 165.182 100.664 166.088 102.241 168.691C103.003 182.662 102.241 192.951 98.9627 203.989C96.6131 207.875 94.7133 209.369 90.9854 211.638C99.5091 192.733 98.9627 182.242 97.6514 163.665Z" fill="#FFCE85"/>
<path d="M23.341 162.12C13.5407 175.192 9.77461 183.376 5.74707 199.275C8.70555 214.893 16.4071 217.717 35.471 217.525C26.3386 203.842 25.2917 188.8 23.341 162.12Z" fill="#FFCE85"/>
<path d="M22.5758 184.522C22.5758 184.522 17.7518 181.409 13.7243 197.308C12.1939 208.017 15.1445 215.23 28.6954 213.044C28.6954 213.044 31.7549 207.143 22.5758 184.522Z" fill="#848587"/>
<path d="M17.2222 160.059C10.1794 164.112 3.78092 171.424 4.10875 173.282C4.43659 175.139 6.18506 176.779 6.18506 176.779V195.356C6.18506 195.356 1.70449 201.475 10.7747 212.513C16.785 211.966 17.7685 191.203 17.7685 191.203C17.7685 191.203 16.1847 188.409 16.4572 187.488C16.7006 187.93 16.0408 187.818 16.4572 187.488H21.1563L25.9646 208.251C25.9646 208.251 27.1666 215.682 34.2698 217.321C41.3729 218.96 60.682 218.678 74.5937 218.96C82.0747 217.247 86.3049 216.38 92.4062 211.092L99.2908 188.69C102.297 173.677 100.398 170.37 97.6516 163.556C83.9848 159.743 76.2952 158.613 62.573 156.89C44.8639 155.515 34.9352 155.173 17.2222 160.059Z" fill="#F2B65D"/>
<path d="M7.98513 171.505C27.8602 158.823 48.4139 163.09 83.3877 168.664C85.523 169.894 83.3877 199.59 81.3114 199.59C59.8887 203.141 25.4195 203.989 26.9494 201.804C26.8801 195.64 25.5112 192.366 22.1914 186.585C19.5028 185.248 17.9978 185.207 15.3068 186.585C15.3068 186.585 12.3191 196.558 9.84288 199.59C7.36661 202.621 -0.754456 188.155 7.98513 171.505Z" fill="#D1DBDC"/>
<path d="M81.155 171.672C83.3983 173.408 82.7699 176.986 81.6618 178.418C80.5537 179.849 79.3855 178.593 77.1422 176.857C74.8988 175.121 73.9973 169.905 75.1054 168.473C76.2135 167.041 78.9117 169.936 81.155 171.672Z" fill="#FCFFE4"/>
<path d="M42.1385 182.023C42.1385 190.11 40.3036 196.666 40.0622 196.666C39.8208 196.666 38.6416 190.766 38.6416 182.678C38.6416 174.591 41.46 167.379 41.7014 167.379C41.9428 167.379 42.1385 173.935 42.1385 182.023Z" fill="#FCFFE4"/>
<path d="M62.6654 199.941C54.6241 200.803 48.0076 200.589 47.9947 200.469C47.9818 200.349 53.7858 199.134 61.8271 198.272C69.8684 197.411 77.1892 198.043 77.2021 198.163C77.2149 198.283 70.7066 199.079 62.6654 199.941Z" fill="#FCFFE4"/>
<path d="M8.69609 187.284C9.38856 191.154 8.14371 194.615 7.90607 194.657C7.66843 194.7 6.00243 192.084 5.30997 188.213C4.6175 184.343 6.77435 180.395 7.01199 180.353C7.24963 180.31 8.00363 183.413 8.69609 187.284Z" fill="#FCFFE4"/>
<path d="M10.4556 177.565C20.7253 174.611 26.196 173.547 34.9341 173.74C35.8668 176.054 36.011 177.556 34.9341 180.953C22.0125 181.163 18.1905 182.069 10.8927 183.575C9.60992 180.978 9.69311 179.702 10.4556 177.565Z" fill="#FCFFE4"/>
<path d="M65.5947 190.451C61.6218 190.801 59.5426 190.8 56.3599 190.097C56.1876 189.174 56.2444 188.608 56.8865 187.43C61.6292 188.285 63.0937 188.226 65.8736 188.196C66.1533 189.249 66.0297 189.716 65.5947 190.451Z" fill="#FCFFE4"/>
<path d="M54.2219 184.41C51.5668 184.942 50.1871 185.051 48.1121 184.572C48.0465 183.731 48.1141 183.207 48.6025 182.088C51.7047 182.625 52.6797 182.494 54.5261 182.319C54.6561 183.274 54.5494 183.71 54.2219 184.41Z" fill="#FCFFE4"/>
<path d="M16.4575 187.362C18.0797 186.707 19.1616 186.873 21.1565 187.362C21.1565 187.362 22.3454 191.372 21.9215 190.75C21.4975 190.128 18.3285 190.669 18.4245 191.182C18.4245 191.182 16.1296 212.819 11.4307 212.164C11.4307 212.164 14.4954 205.18 15.4218 197.635C16.3482 190.089 16.4575 187.362 16.4575 187.362Z" fill="#FFCE85"/>
<path d="M99.2914 273.137L98.6357 278.055C113.607 280.896 121.561 279.434 121.366 274.995L114.153 269.64C108.821 273.787 105.624 274.887 99.2914 273.137Z" fill="#686565"/>
<path d="M94.8107 247.457C86.506 246.036 86.8327 262.865 94.8107 264.723C102.789 266.58 112.624 266.58 121.475 275.541L119.398 256.199C110.242 251.167 103.115 248.877 94.8107 247.457Z" fill="#F1CAFF"/>
<path d="M97.6514 241.665C99.5933 243.182 100.664 244.088 102.241 246.691C103.003 260.662 102.241 270.951 98.9627 281.989C96.6131 285.875 94.7133 287.369 90.9854 289.638C99.5091 270.733 98.9627 260.242 97.6514 241.665Z" fill="#F585FF"/>
<path d="M23.341 240.12C13.5407 253.192 9.77461 261.376 5.74707 277.275C8.70555 292.893 16.4071 295.717 35.471 295.525C26.3386 281.842 25.2917 266.8 23.341 240.12Z" fill="#F585FF"/>
<path d="M22.5758 262.522C22.5758 262.522 17.7518 259.409 13.7243 275.308C12.1939 286.017 15.1445 293.23 28.6954 291.044C28.6954 291.044 31.7549 285.143 22.5758 262.522Z" fill="#848587"/>
<path d="M17.2222 238.059C10.1794 242.112 3.78092 249.424 4.10875 251.282C4.43659 253.139 6.18506 254.779 6.18506 254.779V273.356C6.18506 273.356 1.70449 279.475 10.7747 290.513C16.785 289.966 17.7685 269.203 17.7685 269.203C17.7685 269.203 16.1847 266.409 16.4572 265.488C16.7006 265.93 16.0408 265.818 16.4572 265.488H21.1563L25.9646 286.251C25.9646 286.251 27.1666 293.682 34.2698 295.321C41.3729 296.96 60.682 296.678 74.5937 296.96C82.0747 295.247 86.3049 294.38 92.4062 289.092L99.2908 266.69C102.297 251.677 100.398 248.37 97.6516 241.556C83.9848 237.743 76.2952 236.613 62.573 234.89C44.8639 233.515 34.9352 233.173 17.2222 238.059Z" fill="#F25DC8"/>
<path d="M7.98513 249.505C27.8602 236.823 48.4139 241.09 83.3877 246.664C85.523 247.894 83.3877 277.59 81.3114 277.59C59.8887 281.141 25.4195 281.989 26.9494 279.804C26.8801 273.64 25.5112 270.366 22.1914 264.585C19.5028 263.248 17.9978 263.207 15.3068 264.585C15.3068 264.585 12.3191 274.558 9.84288 277.59C7.36661 280.621 -0.754456 266.155 7.98513 249.505Z" fill="#D1DBDC"/>
<path d="M81.155 249.672C83.3983 251.408 82.7699 254.986 81.6618 256.418C80.5537 257.849 79.3855 256.593 77.1422 254.857C74.8988 253.121 73.9973 247.905 75.1054 246.473C76.2135 245.041 78.9117 247.936 81.155 249.672Z" fill="#FCFFE4"/>
<path d="M42.1385 260.023C42.1385 268.11 40.3036 274.666 40.0622 274.666C39.8208 274.666 38.6416 268.766 38.6416 260.678C38.6416 252.591 41.46 245.379 41.7014 245.379C41.9428 245.379 42.1385 251.935 42.1385 260.023Z" fill="#FCFFE4"/>
<path d="M62.6654 277.941C54.6241 278.803 48.0076 278.589 47.9947 278.469C47.9818 278.349 53.7858 277.134 61.8271 276.272C69.8684 275.411 77.1892 276.043 77.2021 276.163C77.2149 276.283 70.7066 277.079 62.6654 277.941Z" fill="#FCFFE4"/>
<path d="M8.69609 265.284C9.38856 269.154 8.14371 272.615 7.90607 272.657C7.66843 272.7 6.00243 270.084 5.30997 266.213C4.6175 262.343 6.77435 258.395 7.01199 258.353C7.24963 258.31 8.00363 261.413 8.69609 265.284Z" fill="#FCFFE4"/>
<path d="M10.4556 255.565C20.7253 252.611 26.196 251.547 34.9341 251.74C35.8668 254.054 36.011 255.556 34.9341 258.953C22.0125 259.163 18.1905 260.069 10.8927 261.575C9.60992 258.978 9.69311 257.702 10.4556 255.565Z" fill="#FCFFE4"/>
<path d="M65.5947 268.451C61.6218 268.801 59.5426 268.8 56.3599 268.097C56.1876 267.174 56.2444 266.608 56.8865 265.43C61.6292 266.285 63.0937 266.226 65.8736 266.196C66.1533 267.249 66.0297 267.716 65.5947 268.451Z" fill="#FCFFE4"/>
<path d="M54.2219 262.41C51.5668 262.942 50.1871 263.051 48.1121 262.572C48.0465 261.731 48.1141 261.207 48.6025 260.088C51.7047 260.625 52.6797 260.494 54.5261 260.319C54.6561 261.274 54.5494 261.71 54.2219 262.41Z" fill="#FCFFE4"/>
<path d="M16.4575 265.362C18.0797 264.707 19.1616 264.873 21.1565 265.362C21.1565 265.362 22.3454 269.372 21.9215 268.75C21.4975 268.128 18.3285 268.669 18.4245 269.182C18.4245 269.182 16.1296 290.819 11.4307 290.164C11.4307 290.164 14.4954 283.18 15.4218 275.635C16.3482 268.089 16.4575 265.362 16.4575 265.362Z" fill="#F585FF"/>
<path d="M97.2914 353.137L96.6357 358.055C111.607 360.896 119.561 359.434 119.366 354.995L112.153 349.64C106.821 353.787 103.624 354.887 97.2914 353.137Z" fill="#686565"/>
<path d="M92.8107 327.457C84.506 326.036 84.8327 342.865 92.8107 344.723C100.789 346.58 110.624 346.58 119.475 355.541L117.398 336.199C108.242 331.167 101.115 328.877 92.8107 327.457Z" fill="#F8F1B8"/>
<path d="M95.6514 321.665C97.5933 323.182 98.6637 324.088 100.241 326.691C101.003 340.662 100.241 350.951 96.9627 361.989C94.6131 365.875 92.7133 367.369 88.9854 369.638C97.5091 350.733 96.9627 340.242 95.6514 321.665Z" fill="#FFF5BF"/>
<path d="M21.341 320.12C11.5407 333.192 7.77461 341.376 3.74707 357.275C6.70555 372.893 14.4071 375.717 33.471 375.525C24.3386 361.842 23.2917 346.8 21.341 320.12Z" fill="#FFF5BF"/>
<path d="M20.5758 342.522C20.5758 342.522 15.7518 339.409 11.7243 355.308C10.1939 366.017 13.1445 373.23 26.6954 371.044C26.6954 371.044 29.7549 365.143 20.5758 342.522Z" fill="#848587"/>
<path d="M15.2222 318.059C8.17943 322.112 1.78092 329.424 2.10875 331.282C2.43659 333.139 4.18506 334.779 4.18506 334.779V353.356C4.18506 353.356 -0.295507 359.475 8.77465 370.513C14.785 369.966 15.7685 349.203 15.7685 349.203C15.7685 349.203 14.1847 346.409 14.4572 345.488C14.7006 345.93 14.0408 345.818 14.4572 345.488H19.1563L23.9646 366.251C23.9646 366.251 25.1666 373.682 32.2698 375.321C39.3729 376.96 58.682 376.678 72.5937 376.96C80.0747 375.247 84.3049 374.38 90.4062 369.092L97.2908 346.69C100.297 331.677 98.3976 328.37 95.6516 321.556C81.9848 317.743 74.2952 316.613 60.573 314.89C42.8639 313.515 32.9352 313.173 15.2222 318.059Z" fill="#FFFDC2"/>
<path d="M5.98513 329.505C25.8602 316.823 46.4139 321.09 81.3877 326.664C83.523 327.894 81.3877 357.59 79.3114 357.59C57.8887 361.141 23.4195 361.989 24.9494 359.804C24.8801 353.64 23.5112 350.366 20.1914 344.585C17.5028 343.248 15.9978 343.207 13.3068 344.585C13.3068 344.585 10.3191 354.558 7.84288 357.59C5.36661 360.621 -2.75446 346.155 5.98513 329.505Z" fill="#D1DBDC"/>
<path d="M79.155 329.672C81.3983 331.408 80.7699 334.986 79.6618 336.418C78.5537 337.849 77.3855 336.593 75.1422 334.857C72.8988 333.121 71.9973 327.905 73.1054 326.473C74.2135 325.041 76.9117 327.936 79.155 329.672Z" fill="#FCFFE4"/>
<path d="M40.1385 340.023C40.1385 348.11 38.3036 354.666 38.0622 354.666C37.8208 354.666 36.6416 348.766 36.6416 340.678C36.6416 332.591 39.46 325.379 39.7014 325.379C39.9428 325.379 40.1385 331.935 40.1385 340.023Z" fill="#FCFFE4"/>
<path d="M60.6654 357.941C52.6241 358.803 46.0076 358.589 45.9947 358.469C45.9818 358.349 51.7858 357.134 59.8271 356.272C67.8684 355.411 75.1892 356.043 75.2021 356.163C75.2149 356.283 68.7066 357.079 60.6654 357.941Z" fill="#FCFFE4"/>
<path d="M6.69609 345.284C7.38856 349.154 6.14371 352.615 5.90607 352.657C5.66843 352.7 4.00243 350.084 3.30997 346.213C2.6175 342.343 4.77435 338.395 5.01199 338.353C5.24963 338.31 6.00363 341.413 6.69609 345.284Z" fill="#FCFFE4"/>
<path d="M8.45556 335.565C18.7253 332.611 24.196 331.547 32.9341 331.74C33.8668 334.054 34.011 335.556 32.9341 338.953C20.0125 339.163 16.1905 340.069 8.89268 341.575C7.60992 338.978 7.69311 337.702 8.45556 335.565Z" fill="#FCFFE4"/>
<path d="M63.5947 348.451C59.6218 348.801 57.5426 348.8 54.3599 348.097C54.1876 347.174 54.2444 346.608 54.8865 345.43C59.6292 346.285 61.0937 346.226 63.8736 346.196C64.1533 347.249 64.0297 347.716 63.5947 348.451Z" fill="#FCFFE4"/>
<path d="M52.2219 342.41C49.5668 342.942 48.1871 343.051 46.1121 342.572C46.0465 341.731 46.1141 341.207 46.6025 340.088C49.7047 340.625 50.6797 340.494 52.5261 340.319C52.6561 341.274 52.5494 341.71 52.2219 342.41Z" fill="#FCFFE4"/>
<path d="M14.4575 345.362C16.0797 344.707 17.1616 344.873 19.1565 345.362C19.1565 345.362 20.3454 349.372 19.9215 348.75C19.4975 348.128 16.3285 348.669 16.4245 349.182C16.4245 349.182 14.1296 370.819 9.43066 370.164C9.43066 370.164 12.4954 363.18 13.4218 355.635C14.3482 348.089 14.4575 345.362 14.4575 345.362Z" fill="#FFF5BF"/>
<path d="M95.2914 433.137L94.6357 438.055C109.607 440.896 117.561 439.434 117.366 434.995L110.153 429.64C104.821 433.787 101.624 434.887 95.2914 433.137Z" fill="#686565"/>
<path d="M90.8107 407.457C82.506 406.036 82.8327 422.865 90.8107 424.723C98.7886 426.58 108.624 426.58 117.475 435.541L115.398 416.199C106.242 411.167 99.1153 408.877 90.8107 407.457Z" fill="#85C4FF"/>
<path d="M93.6514 401.665C95.5933 403.182 96.6637 404.088 98.2411 406.691C99.0028 420.662 98.2411 430.951 94.9627 441.989C92.6131 445.875 90.7133 447.369 86.9854 449.638C95.5091 430.733 94.9627 420.242 93.6514 401.665Z" fill="#6A59E6"/>
<path d="M19.341 400.12C9.54067 413.192 5.77461 421.376 1.74707 437.275C4.70555 452.893 12.4071 455.717 31.471 455.525C22.3386 441.842 21.2917 426.8 19.341 400.12Z" fill="#6A59E6"/>
<path d="M18.5758 422.522C18.5758 422.522 13.7518 419.409 9.72426 435.308C8.1939 446.017 11.1445 453.23 24.6954 451.044C24.6954 451.044 27.7549 445.143 18.5758 422.522Z" fill="#848587"/>
<path d="M13.2222 398.059C6.17943 402.112 -0.219084 409.424 0.108753 411.282C0.43659 413.139 2.18506 414.779 2.18506 414.779V433.356C2.18506 433.356 -2.29551 439.475 6.77465 450.513C12.785 449.966 13.7685 429.203 13.7685 429.203C13.7685 429.203 12.1847 426.409 12.4572 425.488C12.7006 425.93 12.0408 425.818 12.4572 425.488H17.1563L21.9646 446.251C21.9646 446.251 23.1666 453.682 30.2698 455.321C37.3729 456.96 56.682 456.678 70.5937 456.96C78.0747 455.247 82.3049 454.38 88.4062 449.092L95.2908 426.69C98.2973 411.677 96.3976 408.37 93.6516 401.556C79.9848 397.743 72.2952 396.613 58.573 394.89C40.8639 393.515 30.9352 393.173 13.2222 398.059Z" fill="#63B4FF"/>
<path d="M3.98513 409.505C23.8602 396.823 44.4139 401.09 79.3877 406.664C81.523 407.894 79.3877 437.59 77.3114 437.59C55.8887 441.141 21.4195 441.989 22.9494 439.804C22.8801 433.64 21.5112 430.366 18.1914 424.585C15.5028 423.248 13.9978 423.207 11.3068 424.585C11.3068 424.585 8.31914 434.558 5.84288 437.59C3.36661 440.621 -4.75446 426.155 3.98513 409.505Z" fill="#D1DBDC"/>
<path d="M77.155 409.672C79.3983 411.408 78.7699 414.986 77.6618 416.418C76.5537 417.849 75.3855 416.593 73.1422 414.857C70.8988 413.121 69.9973 407.905 71.1054 406.473C72.2135 405.041 74.9117 407.936 77.155 409.672Z" fill="#FCFFE4"/>
<path d="M38.1385 420.023C38.1385 428.11 36.3036 434.666 36.0622 434.666C35.8208 434.666 34.6416 428.766 34.6416 420.678C34.6416 412.591 37.46 405.379 37.7014 405.379C37.9428 405.379 38.1385 411.935 38.1385 420.023Z" fill="#FCFFE4"/>
<path d="M58.6654 437.941C50.6241 438.803 44.0076 438.589 43.9947 438.469C43.9818 438.349 49.7858 437.134 57.8271 436.272C65.8684 435.411 73.1892 436.043 73.2021 436.163C73.2149 436.283 66.7066 437.079 58.6654 437.941Z" fill="#FCFFE4"/>
<path d="M4.69609 425.284C5.38856 429.154 4.14371 432.615 3.90607 432.657C3.66843 432.7 2.00243 430.084 1.30997 426.213C0.617498 422.343 2.77435 418.395 3.01199 418.353C3.24963 418.31 4.00363 421.413 4.69609 425.284Z" fill="#FCFFE4"/>
<path d="M6.45556 415.565C16.7253 412.611 22.196 411.547 30.9341 411.74C31.8668 414.054 32.011 415.556 30.9341 418.953C18.0125 419.163 14.1905 420.069 6.89268 421.575C5.60992 418.978 5.69311 417.702 6.45556 415.565Z" fill="#FCFFE4"/>
<path d="M61.5947 428.451C57.6218 428.801 55.5426 428.8 52.3599 428.097C52.1876 427.174 52.2444 426.608 52.8865 425.43C57.6292 426.285 59.0937 426.226 61.8736 426.196C62.1533 427.249 62.0297 427.716 61.5947 428.451Z" fill="#FCFFE4"/>
<path d="M50.2219 422.41C47.5668 422.942 46.1871 423.051 44.1121 422.572C44.0465 421.731 44.1141 421.207 44.6025 420.088C47.7047 420.625 48.6797 420.494 50.5261 420.319C50.6561 421.274 50.5494 421.71 50.2219 422.41Z" fill="#FCFFE4"/>
<path d="M12.4575 425.362C14.0797 424.707 15.1616 424.873 17.1565 425.362C17.1565 425.362 18.3454 429.372 17.9215 428.75C17.4975 428.128 14.3285 428.669 14.4245 429.182C14.4245 429.182 12.1296 450.819 7.43066 450.164C7.43066 450.164 10.4954 443.18 11.4218 435.635C12.3482 428.089 12.4575 425.362 12.4575 425.362Z" fill="#6A59E6"/>
<path d="M95.2914 513.137L94.6357 518.055C109.607 520.896 117.561 519.434 117.366 514.995L110.153 509.64C104.821 513.787 101.624 514.887 95.2914 513.137Z" fill="#686565"/>
<path d="M90.8107 487.457C82.506 486.036 82.8327 502.865 90.8107 504.723C98.7886 506.58 108.624 506.58 117.475 515.541L115.398 496.199C106.242 491.167 99.1153 488.877 90.8107 487.457Z" fill="#FF8585"/>
<path d="M93.6514 481.665C95.5933 483.182 96.6637 484.088 98.2411 486.691C99.0028 500.662 98.2411 510.951 94.9627 521.989C92.6131 525.875 90.7133 527.369 86.9854 529.638C95.5091 510.733 94.9627 500.242 93.6514 481.665Z" fill="#EB5757"/>
<path d="M19.341 480.12C9.54067 493.192 5.77461 501.376 1.74707 517.275C4.70555 532.893 12.4071 535.717 31.471 535.525C22.3386 521.842 21.2917 506.8 19.341 480.12Z" fill="#EB5757"/>
<path d="M18.5758 502.522C18.5758 502.522 13.7518 499.409 9.72426 515.308C8.1939 526.017 11.1445 533.23 24.6954 531.044C24.6954 531.044 27.7549 525.143 18.5758 502.522Z" fill="#848587"/>
<path d="M13.2222 478.059C6.17943 482.112 -0.219084 489.424 0.108753 491.282C0.43659 493.139 2.18506 494.779 2.18506 494.779V513.356C2.18506 513.356 -2.29551 519.475 6.77465 530.513C12.785 529.966 13.7685 509.203 13.7685 509.203C13.7685 509.203 12.1847 506.409 12.4572 505.488C12.7006 505.93 12.0408 505.818 12.4572 505.488H17.1563L21.9646 526.251C21.9646 526.251 23.1666 533.682 30.2698 535.321C37.3729 536.96 56.682 536.678 70.5937 536.96C78.0747 535.247 82.3049 534.38 88.4062 529.092L95.2908 506.69C98.2973 491.677 96.3976 488.37 93.6516 481.556C79.9848 477.743 72.2952 476.613 58.573 474.89C40.8639 473.515 30.9352 473.173 13.2222 478.059Z" fill="#FF6363"/>
<path d="M3.98513 489.505C23.8602 476.823 44.4139 481.09 79.3877 486.664C81.523 487.894 79.3877 517.59 77.3114 517.59C55.8887 521.141 21.4195 521.989 22.9494 519.804C22.8801 513.64 21.5112 510.366 18.1914 504.585C15.5028 503.248 13.9978 503.207 11.3068 504.585C11.3068 504.585 8.31914 514.558 5.84288 517.59C3.36661 520.621 -4.75446 506.155 3.98513 489.505Z" fill="#D1DBDC"/>
<path d="M77.155 489.672C79.3983 491.408 78.7699 494.986 77.6618 496.418C76.5537 497.849 75.3855 496.593 73.1422 494.857C70.8988 493.121 69.9973 487.905 71.1054 486.473C72.2135 485.041 74.9117 487.936 77.155 489.672Z" fill="#FCFFE4"/>
<path d="M38.1385 500.023C38.1385 508.11 36.3036 514.666 36.0622 514.666C35.8208 514.666 34.6416 508.766 34.6416 500.678C34.6416 492.591 37.46 485.379 37.7014 485.379C37.9428 485.379 38.1385 491.935 38.1385 500.023Z" fill="#FCFFE4"/>
<path d="M58.6654 517.941C50.6241 518.803 44.0076 518.589 43.9947 518.469C43.9818 518.349 49.7858 517.134 57.8271 516.272C65.8684 515.411 73.1892 516.043 73.2021 516.163C73.2149 516.283 66.7066 517.079 58.6654 517.941Z" fill="#FCFFE4"/>
<path d="M4.69609 505.284C5.38856 509.154 4.14371 512.615 3.90607 512.657C3.66843 512.7 2.00243 510.084 1.30997 506.213C0.617498 502.343 2.77435 498.395 3.01199 498.353C3.24963 498.31 4.00363 501.413 4.69609 505.284Z" fill="#FCFFE4"/>
<path d="M6.45556 495.565C16.7253 492.611 22.196 491.547 30.9341 491.74C31.8668 494.054 32.011 495.556 30.9341 498.953C18.0125 499.163 14.1905 500.069 6.89268 501.575C5.60992 498.978 5.69311 497.702 6.45556 495.565Z" fill="#FCFFE4"/>
<path d="M61.5947 508.451C57.6218 508.801 55.5426 508.8 52.3599 508.097C52.1876 507.174 52.2444 506.608 52.8865 505.43C57.6292 506.285 59.0937 506.226 61.8736 506.196C62.1533 507.249 62.0297 507.716 61.5947 508.451Z" fill="#FCFFE4"/>
<path d="M50.2219 502.41C47.5668 502.942 46.1871 503.051 44.1121 502.572C44.0465 501.731 44.1141 501.207 44.6025 500.088C47.7047 500.625 48.6797 500.494 50.5261 500.319C50.6561 501.274 50.5494 501.71 50.2219 502.41Z" fill="#FCFFE4"/>
<path d="M12.4575 505.362C14.0797 504.707 15.1616 504.873 17.1565 505.362C17.1565 505.362 18.3454 509.372 17.9215 508.75C17.4975 508.128 14.3285 508.669 14.4245 509.182C14.4245 509.182 12.1296 530.819 7.43066 530.164C7.43066 530.164 10.4954 523.18 11.4218 515.635C12.3482 508.089 12.4575 505.362 12.4575 505.362Z" fill="#EB5757"/>
<path d="M100.291 117.074L99.6357 121.991C114.607 124.832 122.561 123.37 122.366 118.931L115.153 113.577C109.821 117.724 106.624 118.824 100.291 117.074Z" fill="#686565"/>
<path d="M95.8107 91.3931C87.506 89.9725 87.8327 106.801 95.8107 108.659C103.789 110.517 113.624 110.517 122.475 119.478L120.398 100.135C111.242 95.1031 104.115 92.8137 95.8107 91.3931Z" fill="#E3E9E5"/>
<path d="M98.6514 85.6011C100.593 87.1185 101.664 88.0241 103.241 90.6279C104.003 104.598 103.241 114.888 99.9627 125.925C97.6131 129.812 95.7133 131.305 91.9854 133.575C100.509 114.669 99.9627 104.179 98.6514 85.6011Z" fill="#8894AC"/>
<path d="M24.341 84.0562C14.5407 97.128 10.7746 105.312 6.74707 121.211C9.70555 136.829 17.4071 139.653 36.471 139.461C27.3386 125.778 26.2917 110.736 24.341 84.0562Z" fill="#8894AC"/>
<path d="M23.5758 106.459C23.5758 106.459 18.7518 103.346 14.7243 119.244C13.1939 129.954 16.1445 137.166 29.6954 134.981C29.6954 134.981 32.7549 129.08 23.5758 106.459Z" fill="#848587"/>
<path d="M18.2222 81.9954C11.1794 86.049 4.78092 93.3603 5.10875 95.2182C5.43659 97.076 7.18506 98.7151 7.18506 98.7151V117.293C7.18506 117.293 2.70449 123.412 11.7747 134.449C17.785 133.903 18.7685 113.14 18.7685 113.14C18.7685 113.14 17.1847 110.345 17.4572 109.424C17.7006 109.866 17.0408 109.754 17.4572 109.424H22.1563L26.9646 130.187C26.9646 130.187 28.1666 137.618 35.2698 139.258C42.3729 140.897 61.682 140.614 75.5937 140.897C83.0747 139.183 87.3049 138.317 93.4062 133.029L100.291 110.627C103.297 95.6134 101.398 92.3062 98.6516 85.4923C84.9848 81.6796 77.2952 80.5491 63.573 78.8263C45.8639 77.4515 35.9352 77.1094 18.2222 81.9954Z" fill="#A2B1D0"/>
<path d="M8.98513 93.4414C28.8602 80.7595 49.4139 85.0263 84.3877 90.6002C86.523 91.8306 84.3877 121.526 82.3114 121.526C60.8887 125.078 26.4195 125.926 27.9494 123.74C27.8801 117.577 26.5112 114.303 23.1914 108.522C20.5028 107.184 18.9978 107.144 16.3068 108.522C16.3068 108.522 13.3191 118.495 10.8429 121.526C8.36661 124.558 0.245544 110.092 8.98513 93.4414Z" fill="#D1DBDC"/>
<path d="M82.155 93.6088C84.3983 95.3448 83.7699 98.9227 82.6618 100.355C81.5537 101.786 80.3855 100.53 78.1422 98.7942C75.8988 97.0582 74.9973 91.8418 76.1054 90.4099C77.2135 88.978 79.9117 91.8728 82.155 93.6088Z" fill="#FCFFE4"/>
<path d="M43.1385 103.959C43.1385 112.047 41.3036 118.603 41.0622 118.603C40.8208 118.603 39.6416 112.702 39.6416 104.615C39.6416 96.5277 42.46 89.3159 42.7014 89.3159C42.9428 89.3159 43.1385 95.872 43.1385 103.959Z" fill="#FCFFE4"/>
<path d="M63.6663 121.877C55.6251 122.739 49.0085 122.525 48.9957 122.405C48.9828 122.285 54.7868 121.07 62.8281 120.208C70.8694 119.347 78.1902 119.979 78.2031 120.099C78.2159 120.219 71.7076 121.015 63.6663 121.877Z" fill="#FCFFE4"/>
<path d="M9.69609 109.22C10.3886 113.091 9.14371 116.551 8.90607 116.594C8.66843 116.636 7.00243 114.02 6.30997 110.15C5.6175 106.28 7.77435 102.332 8.01199 102.289C8.24963 102.247 9.00363 105.35 9.69609 109.22Z" fill="#FCFFE4"/>
<path d="M11.4556 99.5021C21.7253 96.5483 27.196 95.4836 35.9341 95.6774C36.8668 97.9913 37.011 99.4928 35.9341 102.89C23.0125 103.1 19.1905 104.006 11.8927 105.512C10.6099 102.915 10.6931 101.639 11.4556 99.5021Z" fill="#FCFFE4"/>
<path d="M66.5947 112.387C62.6218 112.737 60.5426 112.736 57.3599 112.033C57.1876 111.11 57.2444 110.544 57.8865 109.366C62.6292 110.222 64.0937 110.163 66.8736 110.133C67.1533 111.186 67.0297 111.652 66.5947 112.387Z" fill="#FCFFE4"/>
<path d="M55.2219 106.346C52.5668 106.879 51.1871 106.988 49.1121 106.509C49.0465 105.668 49.1141 105.144 49.6025 104.025C52.7047 104.562 53.6797 104.43 55.5261 104.256C55.6561 105.211 55.5494 105.646 55.2219 106.346Z" fill="#FCFFE4"/>
<path d="M17.4575 109.299C19.0797 108.643 20.1616 108.809 22.1565 109.299C22.1565 109.299 23.3454 113.309 22.9215 112.687C22.4975 112.065 19.3285 112.606 19.4245 113.119C19.4245 113.119 17.1296 134.756 12.4307 134.1C12.4307 134.1 15.4954 127.117 16.4218 119.571C17.3482 112.026 17.4575 109.299 17.4575 109.299Z" fill="#8894AC"/>
</svg>
