<svg width="118" height="63" viewBox="0 0 118 63" fill="none" xmlns="http://www.w3.org/2000/svg">
<path d="M95.2914 39.1371L94.6357 44.0546C109.607 46.8959 117.561 45.4337 117.366 40.9948L110.153 35.6401C104.821 39.7874 101.624 40.8874 95.2914 39.1371Z" fill="#686565"/>
<path d="M90.8107 13.4566C82.506 12.036 82.8327 28.8649 90.8107 30.7227C98.7886 32.5805 108.624 32.5805 117.475 41.5414L115.398 22.1989C106.242 17.1665 99.1153 14.8772 90.8107 13.4566Z" fill="#ECC2FF"/>
<path d="M93.6514 7.66455C95.5933 9.18199 96.6637 10.0876 98.2411 12.6914C99.0028 26.6616 98.2411 36.9513 94.9627 47.9885C92.6131 51.875 90.7133 53.3688 86.9854 55.638C95.5091 36.7328 94.9627 26.242 93.6514 7.66455Z" fill="#BB85FF"/>
<path d="M19.341 6.12012C9.54067 19.192 5.77461 27.3763 1.74707 43.275C4.70555 58.8931 12.4071 61.717 31.471 61.5246C22.3386 47.8421 21.2917 32.7995 19.341 6.12012Z" fill="#BB85FF"/>
<path d="M18.5758 28.5224C18.5758 28.5224 13.7518 25.4093 9.72426 41.3079C8.1939 52.0173 11.1445 59.2297 24.6954 57.0443C24.6954 57.0443 27.7549 51.1431 18.5758 28.5224Z" fill="#848587"/>
<path d="M13.2222 4.05889C6.17943 8.1125 -0.219084 15.4238 0.108753 17.2817C0.43659 19.1395 2.18506 20.7786 2.18506 20.7786V39.356C2.18506 39.356 -2.29551 45.4755 6.77465 56.5127C12.785 55.9663 13.7685 35.2033 13.7685 35.2033C13.7685 35.2033 12.1847 32.4086 12.4572 31.4879C12.0408 31.8176 12.7006 31.9297 12.4572 31.4879H17.1563L21.9646 52.2509C21.9646 52.2509 23.1666 59.6819 30.2698 61.3211C37.3729 62.9603 56.682 62.6778 70.5937 62.9603C78.0747 61.2467 82.3049 60.3801 88.4062 55.0922L95.2908 32.69C98.2973 17.6769 96.3976 14.3697 93.6516 7.55582C79.9847 3.74311 72.2952 2.61262 58.573 0.8898C40.8639 -0.485058 30.9352 -0.827122 13.2222 4.05889Z" fill="#CE93E9"/>
<path d="M3.98513 15.5049C23.8602 2.82295 44.4139 7.0898 79.3877 12.6636C81.523 13.894 79.3877 43.5896 77.3114 43.5896C55.8887 47.1412 21.4195 47.9891 22.9494 45.8035C22.8801 39.6402 21.5112 36.3663 18.1914 30.5854C15.5028 29.2478 13.9978 29.2071 11.3068 30.5854C11.3068 30.5854 8.31914 40.5581 5.84288 43.5896C3.36661 46.6211 -4.75446 32.1554 3.98513 15.5049Z" fill="#D1DBDC"/>
<path d="M77.155 15.6718C79.3983 17.4078 78.7699 20.9857 77.6618 22.4176C76.5537 23.8495 75.3855 22.5932 73.1422 20.8572C70.8988 19.1212 69.9973 13.9048 71.1054 12.4729C72.2135 11.041 74.9117 13.9358 77.155 15.6718Z" fill="#FCFFE4"/>
<path d="M38.1385 26.0228C38.1385 34.1101 36.3036 40.6662 36.0622 40.6662C35.8208 40.6662 34.6416 34.7658 34.6416 26.6785C34.6416 18.5911 37.46 11.3794 37.7014 11.3794C37.9428 11.3794 38.1385 17.9355 38.1385 26.0228Z" fill="#FCFFE4"/>
<path d="M58.6654 43.941C50.6241 44.8027 44.0076 44.5891 43.9947 44.4691C43.9818 44.3491 49.7858 43.1341 57.8271 42.2723C65.8684 41.4106 73.1892 42.0433 73.2021 42.1633C73.2149 42.2833 66.7066 43.0792 58.6654 43.941Z" fill="#FCFFE4"/>
<path d="M4.69609 31.2837C5.38856 35.1542 4.14371 38.6149 3.90607 38.6574C3.66843 38.6999 2.00243 36.0838 1.30997 32.2134C0.617498 28.343 2.77435 24.3952 3.01199 24.3527C3.24963 24.3102 4.00363 27.4133 4.69609 31.2837Z" fill="#FCFFE4"/>
<path d="M6.45556 21.5651C16.7253 18.6113 22.196 17.5466 30.9341 17.7404C31.8668 20.0543 32.011 21.5558 30.9341 24.9528C18.0125 25.1627 14.1905 26.069 6.89268 27.5755C5.60992 24.9783 5.69311 23.7016 6.45556 21.5651Z" fill="#FCFFE4"/>
<path d="M61.5947 34.4505C57.6218 34.801 55.5426 34.7995 52.3599 34.0967C52.1876 33.1736 52.2444 32.6079 52.8865 31.4296C57.6292 32.2853 59.0937 32.2263 61.8736 32.1964C62.1533 33.2494 62.0297 33.7155 61.5947 34.4505Z" fill="#FCFFE4"/>
<path d="M50.2219 28.4098C47.5668 28.9425 46.1871 29.051 44.1121 28.572C44.0465 27.7311 44.1141 27.2071 44.6025 26.0881C47.7047 26.6255 48.6797 26.4937 50.5261 26.3192C50.6561 27.2742 50.5494 27.7099 50.2219 28.4098Z" fill="#FCFFE4"/>
<path d="M12.4575 31.3625C14.0797 30.7068 15.1616 30.8726 17.1565 31.3625C17.1565 31.3625 18.3454 35.3722 17.9215 34.7501C17.4975 34.1281 14.3285 34.6693 14.4245 35.182C14.4245 35.182 12.1296 56.8191 7.43066 56.1636C7.43066 56.1636 10.4954 49.1805 11.4218 41.6348C12.3482 34.0891 12.4575 31.3625 12.4575 31.3625Z" fill="#BB85FF"/>
</svg>
